<?xml version="1.0" encoding="UTF-8"?>
<svg version="1.1" xmlns="http://www.w3.org/2000/svg" width="500" height="500">
<path d="M0 0 C0.73605469 0.69609375 1.47210938 1.3921875 2.23046875 2.109375 C4.43001436 4.17670749 6.26187799 5.71861285 9 7 C12.08804931 6.71926824 14.77729791 5.83347204 17.7421875 4.92578125 C23.42210852 3.45241828 29.23119522 3.6287087 35.0625 3.625 C36.15038818 3.61202881 37.23827637 3.59905762 38.35913086 3.58569336 C49.64617058 3.64100113 59.74350642 6.42233185 70 11 C71.38445312 11.57814453 71.38445312 11.57814453 72.796875 12.16796875 C93.3024251 21.41716529 106.60080254 39.36392003 115.08984375 59.59765625 C115.86436846 61.72085584 116.47253299 63.80288177 117 66 C117.30357422 67.25683594 117.30357422 67.25683594 117.61328125 68.5390625 C120.41422666 82.3723031 119.2754857 97.03798694 118 111 C118.99 111.33 119.98 111.66 121 112 C130.46450196 120.28756907 137.7318123 134.01664511 141 146 C141.29648437 147.08023438 141.59296875 148.16046875 141.8984375 149.2734375 C147.38792423 172.49044102 144.206124 196.84436966 131.8125 217.3125 C129.76953125 220.61328125 129.76953125 220.61328125 128 223 C127.34 223 126.68 223 126 223 C125.731875 223.5775 125.46375 224.155 125.1875 224.75 C123.97070811 227.05550043 122.69666121 229.02056192 121 231 C120.34 231 119.68 231 119 231 C118.79246094 231.56203125 118.58492188 232.1240625 118.37109375 232.703125 C116.51529307 235.81198768 113.93745178 237.65104591 111.0625 239.75 C110.52431641 240.16121094 109.98613281 240.57242187 109.43164062 240.99609375 C105.38484998 244 105.38484998 244 102 244 C102 244.66 102 245.32 102 246 C99.2100561 247.17094005 96.41821403 248.33690927 93.625 249.5 C92.8309375 249.83386719 92.036875 250.16773438 91.21875 250.51171875 C90.45820313 250.82753906 89.69765625 251.14335937 88.9140625 251.46875 C87.8614624 251.90864258 87.8614624 251.90864258 86.78759766 252.35742188 C85 253 85 253 83 253 C82.84144531 253.73863281 82.68289063 254.47726562 82.51953125 255.23828125 C77.22432405 278.26219323 63.22066151 295.95629334 43.4921875 308.59375 C33.81958551 314.05164454 23.91164807 317.16771824 13 319 C12.23945313 319.13148438 11.47890625 319.26296875 10.6953125 319.3984375 C-10.22293142 322.50677093 -32.09890788 316.48163063 -49 304 C-49.72058594 303.31679688 -50.44117188 302.63359375 -51.18359375 301.9296875 C-54.67933255 298.65844569 -56.6067892 297.01078814 -61.53125 296.97265625 C-65.76386442 297.56294855 -69.85900802 298.36325787 -73.95703125 299.58203125 C-92.98385839 303.47470908 -114.35534619 297.26765826 -130.25 286.875 C-131.1575 286.25625 -132.065 285.6375 -133 285 C-134.3191582 284.30570621 -135.64649406 283.62469505 -137 283 C-137 282.34 -137 281.68 -137 281 C-137.66 281 -138.32 281 -139 281 C-139 280.34 -139 279.68 -139 279 C-139.556875 278.773125 -140.11375 278.54625 -140.6875 278.3125 C-144.96311877 275.88579746 -148.13916819 272.56749627 -150 268 C-150.66 268 -151.32 268 -152 268 C-153.04349839 266.36021682 -154.03182008 264.68535024 -155 263 C-155.78375 262.01 -156.5675 261.02 -157.375 260 C-165.96558948 248.07150076 -169.20040582 230.89848975 -169.125 216.4375 C-169.12814209 215.64754639 -169.13128418 214.85759277 -169.13452148 214.04370117 C-169.12327401 209.21462065 -168.72392124 204.60363538 -168.0625 199.8125 C-167.63693022 195.74942194 -167.63693022 195.74942194 -169.17578125 192.140625 C-170.35551196 191.04496705 -171.57871518 189.99503307 -172.83203125 188.984375 C-185.36235588 177.51517696 -193.13056205 157.23164034 -194.14233398 140.67016602 C-195.15047967 114.05050234 -188.90658949 92.25592498 -170.60546875 72.40234375 C-163.17575628 64.82477631 -163.17575628 64.82477631 -159 62 C-158.01 62 -157.02 62 -156 62 C-156 61.34 -156 60.68 -156 60 C-140.7295082 51 -140.7295082 51 -133 51 C-132.85304687 50.20078125 -132.70609375 49.4015625 -132.5546875 48.578125 C-129.15437265 31.92830746 -120.22071322 17.74634173 -108 6 C-105.73046875 4.71875 -105.73046875 4.71875 -104 4 C-104 3.34 -104 2.68 -104 2 C-73.17370925 -21.4242331 -31.59495352 -22.82124109 0 0 Z M-60.51171875 6.05078125 C-75.82877767 7.04171852 -89.3007041 16.43740245 -99.55859375 27.19140625 C-110.2465965 39.48688462 -114.15558376 55.0726713 -114.14526367 71.09667969 C-114.14862228 71.8619548 -114.1519809 72.62722992 -114.15544128 73.41569519 C-114.16485697 75.9177721 -114.16688894 78.41978154 -114.16796875 80.921875 C-114.17118546 82.67205838 -114.17454984 84.42224149 -114.17805481 86.17242432 C-114.1840208 89.82703272 -114.18589708 93.48161755 -114.18530273 97.13623047 C-114.1852007 101.81921862 -114.19890641 106.50205656 -114.21607494 111.185009 C-114.22718381 114.79321998 -114.22922236 118.40139434 -114.22869301 122.00962067 C-114.22987274 123.73679375 -114.23429414 125.46396778 -114.24202538 127.19112396 C-114.25181235 129.60115722 -114.24895354 132.01085997 -114.24291992 134.42089844 C-114.24853943 135.13265732 -114.25415894 135.8444162 -114.25994873 136.57774353 C-114.23688487 140.19943352 -114.12762977 142.99436498 -112 146 C-109.86457574 147.40908948 -107.81400732 148.62523301 -105.5625 149.8125 C-104.29683325 150.50405664 -103.03252636 151.19810735 -101.76953125 151.89453125 C-101.13740723 152.24209473 -100.5052832 152.5896582 -99.85400391 152.94775391 C-96.16373783 155.04217671 -92.64471701 157.40705145 -89.109375 159.75 C-87.12189123 161.16993413 -87.12189123 161.16993413 -85 161 C-84.98969254 159.76860291 -84.97938507 158.53720581 -84.96876526 157.26849365 C-84.87108108 145.67336728 -84.76835165 134.07829517 -84.66066074 122.48325729 C-84.60545634 116.52189738 -84.55204021 110.56053254 -84.50268555 104.59912109 C-84.45500551 98.84787958 -84.40266122 93.09669784 -84.34705925 87.34552765 C-84.32665223 85.1494724 -84.30793641 82.95340077 -84.29092598 80.75731659 C-84.26684553 77.68548148 -84.23679571 74.61375919 -84.20532227 71.54199219 C-84.1995668 70.63065018 -84.19381134 69.71930817 -84.18788147 68.78034973 C-84.17809265 67.94184982 -84.16830383 67.10334991 -84.15821838 66.23944092 C-84.15176583 65.51306805 -84.14531328 64.78669518 -84.1386652 64.038311 C-83.99481182 61.92373625 -83.57517491 60.03616702 -83 58 C-82.34 58 -81.68 58 -81 58 C-80.505 57.01 -80.505 57.01 -80 56 C-78.49053126 55.09014236 -76.94017364 54.24778901 -75.375 53.4375 C-70.65488186 50.93032036 -66.06535168 48.27399464 -61.5 45.5 C-56.37961077 42.39958671 -51.21943332 39.42760596 -45.9453125 36.59375 C-39.58149505 33.15019891 -33.28809918 29.57950665 -27 26 C-25.42798828 25.10667969 -25.42798828 25.10667969 -23.82421875 24.1953125 C-22.93347656 23.67710938 -22.04273438 23.15890625 -21.125 22.625 C-20.36445313 22.18414062 -19.60390625 21.74328125 -18.8203125 21.2890625 C-16.71580061 19.96203069 -16.71580061 19.96203069 -15 17 C-17.53391361 14.00299184 -20.26346951 12.87400651 -23.875 11.4375 C-24.90367187 11.02371094 -25.93234375 10.60992187 -26.9921875 10.18359375 C-27.98476562 9.79300781 -28.97734375 9.40242188 -30 9 C-30.88171875 8.63261719 -31.7634375 8.26523438 -32.671875 7.88671875 C-41.28039337 4.60797098 -51.49258711 5.86843489 -60.51171875 6.05078125 Z M-1 34.5 C-1.90008789 35.02899902 -2.80017578 35.55799805 -3.72753906 36.10302734 C-5.58490238 37.19500084 -7.43941155 38.29184375 -9.29101562 39.39355469 C-12.63967129 41.37932923 -16.01142584 43.32309721 -19.38598633 45.2644043 C-26.92188071 49.60164889 -34.42337157 53.99727175 -41.90551758 58.42651367 C-45.28372144 60.42197724 -48.67347065 62.38818179 -52.1015625 64.296875 C-53.07258911 64.83985229 -53.07258911 64.83985229 -54.06323242 65.39379883 C-55.81877937 66.37138945 -57.57914588 67.34031099 -59.33984375 68.30859375 C-62.21566556 69.88527751 -62.21566556 69.88527751 -64 73 C-64.17112002 75.47056823 -64.23253124 77.82503921 -64.1953125 80.29296875 C-64.1924826 80.99899734 -64.18965271 81.70502594 -64.18673706 82.43244934 C-64.17555464 84.68430633 -64.1504542 86.93576352 -64.125 89.1875 C-64.11496767 90.71548904 -64.10584226 92.24348433 -64.09765625 93.77148438 C-64.07562172 97.51447663 -64.04110567 101.25717056 -64 105 C-53.89532306 99.98504065 -44.24044318 94.17174092 -34.58789062 88.34594727 C-29.48268325 85.2716961 -24.31895654 82.30989493 -19.13671875 79.3671875 C-11.69926509 75.12747962 -4.32162966 70.78318783 3.0703125 66.46484375 C4.03791504 65.90144287 5.00551758 65.33804199 6.00244141 64.75756836 C8.09502703 63.53061577 10.1800963 62.29079306 12.25927734 61.04125977 C13.31840332 60.40889404 14.3775293 59.77652832 15.46875 59.125 C16.42458984 58.54878906 17.38042969 57.97257812 18.36523438 57.37890625 C22.49928943 55.21534593 25.52714894 54.61139257 30 56 C33.83956477 57.8263344 37.45730756 59.99731681 41.05859375 62.25 C43.71602907 64.17043442 43.71602907 64.17043442 46 64 C46 64.66 46 65.32 46 66 C46.80824219 66.39832031 47.61648438 66.79664063 48.44921875 67.20703125 C49.51785156 67.73683594 50.58648437 68.26664063 51.6875 68.8125 C52.74324219 69.33457031 53.79898438 69.85664063 54.88671875 70.39453125 C58 72 58 72 60.76953125 73.69921875 C62.85760161 75.16792565 62.85760161 75.16792565 65 75 C65 75.66 65 76.32 65 77 C67.64738916 78.4606285 68.89448334 79 72 79 C72 79.66 72 80.32 72 81 C72.73605469 81.39832031 73.47210938 81.79664063 74.23046875 82.20703125 C75.20628906 82.73683594 76.18210937 83.26664063 77.1875 83.8125 C78.15042969 84.33457031 79.11335937 84.85664063 80.10546875 85.39453125 C81.99344574 86.44170877 83.85326887 87.54185688 85.67578125 88.69921875 C87.99240534 90.24419003 87.99240534 90.24419003 91 90 C91 90.66 91 91.32 91 92 C93.31 92.99 95.62 93.98 98 95 C98.90863159 80.9162103 95.14290572 67.09532035 88 55 C87.22849609 53.60201172 87.22849609 53.60201172 86.44140625 52.17578125 C85.96574219 51.45777344 85.49007812 50.73976563 85 50 C84.34 50 83.68 50 83 50 C82.59587891 49.11248047 82.59587891 49.11248047 82.18359375 48.20703125 C76.29478276 37.22624508 62.2601637 30.76896212 51 27 C44.91651173 25.82224509 38.98962765 25.77915458 32.8125 25.75 C31.73935547 25.729375 30.66621094 25.70875 29.56054688 25.6875 C17.82876817 25.63072188 8.97993196 28.47470749 -1 34.5 Z M-145 80 C-145.9075 80.495 -146.815 80.99 -147.75 81.5 C-150.55507997 83.37005331 -152.75154831 85.49458241 -155 88 C-155 88.66 -155 89.32 -155 90 C-155.66 90 -156.32 90 -157 90 C-164.39462068 98.61435193 -170.54030316 109.65501441 -172 121 C-172.13277344 121.99773437 -172.26554687 122.99546875 -172.40234375 124.0234375 C-174.01849604 139.31332774 -170.39687993 156.55548333 -161 169 C-160.37222656 169.845625 -159.74445313 170.69125 -159.09765625 171.5625 C-151.83537672 180.95623943 -143.48111964 186.28153606 -133.25 192.01586914 C-129.52253123 194.10598648 -125.89753141 196.29985105 -122.3125 198.625 C-117.02080291 202.04174732 -111.56024757 205.04611848 -106 208 C-100.26340343 211.04756693 -94.65104331 214.16835708 -89.1875 217.6875 C-81.70692736 222.87576623 -81.70692736 222.87576623 -73 224 C-70.63473772 222.84879143 -68.48032351 221.67992428 -66.25 220.3125 C-65.00945646 219.57494551 -63.76857069 218.83796632 -62.52734375 218.1015625 C-61.92647949 217.74094727 -61.32561523 217.38033203 -60.70654297 217.00878906 C-57.7797978 215.27870165 -54.77343928 213.69644872 -51.76953125 212.10546875 C-49.89302822 210.93317215 -48.49881292 209.6194604 -47 208 C-47.88300781 207.50371094 -48.76601562 207.00742187 -49.67578125 206.49609375 C-55.49690435 203.2065316 -61.26228793 199.88918462 -66.875 196.25 C-70.50156297 193.90651925 -74.11805366 191.82871417 -78.015625 189.9765625 C-81.12883803 188.44446947 -84.11452004 186.68985949 -87.1171875 184.953125 C-88.94567911 183.84944982 -88.94567911 183.84944982 -91 184 C-91 183.34 -91 182.68 -91 182 C-91.90878906 181.52691406 -92.81757813 181.05382812 -93.75390625 180.56640625 C-101.22989979 176.6436683 -108.55650677 172.55273829 -115.7668457 168.15991211 C-119.86823064 165.663061 -124.01154958 163.2962822 -128.265625 161.0703125 C-131.44912056 159.1057229 -132.80726349 157.57820952 -134 154 C-134.11955881 151.4610617 -134.18523964 148.94742176 -134.20532227 146.4074707 C-134.21522186 145.63650055 -134.22512146 144.8655304 -134.23532104 144.07119751 C-134.26690956 141.52275667 -134.291683 138.97429718 -134.31640625 136.42578125 C-134.33697806 134.6588645 -134.3579746 132.89195264 -134.37937927 131.12504578 C-134.43457645 126.47427333 -134.48399612 121.82345664 -134.53222656 117.17260742 C-134.58245876 112.42688051 -134.63813586 107.68121786 -134.69335938 102.93554688 C-134.80091216 93.62375281 -134.90236356 84.31190295 -135 75 C-138.21754942 75 -142.24405312 78.43798216 -145 80 Z M19.8125 81 C19.09707031 81.37125 18.38164062 81.7425 17.64453125 82.125 C17.10183594 82.41375 16.55914062 82.7025 16 83 C16 83.66 16 84.32 16 85 C15.15179688 85.24492187 14.30359375 85.48984375 13.4296875 85.7421875 C9.67948124 87.11754788 6.46918889 88.98381119 3.125 91.125 C2.53203125 91.49753906 1.9390625 91.87007812 1.328125 92.25390625 C-0.1181343 93.16365 -1.55958046 94.08103798 -3 95 C0.20516555 97.5100694 3.55906 99.61669346 7.0625 101.6875 C8.10535156 102.31011719 9.14820313 102.93273437 10.22265625 103.57421875 C12.92448816 105.22834882 12.92448816 105.22834882 16 105 C16 105.66 16 106.32 16 107 C18.7881022 108.5066972 21.58103958 110.00419804 24.375 111.5 C25.1690625 111.92925781 25.963125 112.35851562 26.78125 112.80078125 C27.54179687 113.20683594 28.30234375 113.61289063 29.0859375 114.03125 C29.7876709 114.40830078 30.4894043 114.78535156 31.21240234 115.17382812 C32.97436711 116.13984328 32.97436711 116.13984328 35 116 C35 116.66 35 117.32 35 118 C36.05574219 118.58265625 37.11148438 119.1653125 38.19921875 119.765625 C39.69548987 120.59342948 41.19156744 121.42158386 42.6875 122.25 C43.48027344 122.68876465 44.27304687 123.1275293 45.08984375 123.57958984 C49.68128944 126.12930377 54.25182114 128.7110985 58.80078125 131.3359375 C59.75057861 131.8834668 60.70037598 132.43099609 61.67895508 132.99511719 C63.54422038 134.07279015 65.40738223 135.15411291 67.26831055 136.23925781 C68.54315308 136.97547363 68.54315308 136.97547363 69.84375 137.7265625 C70.59849609 138.16564941 71.35324219 138.60473633 72.13085938 139.05712891 C73.94869716 140.15012761 73.94869716 140.15012761 76 140 C76 140.66 76 141.32 76 142 C77.98 142.66 79.96 143.32 82 144 C82 144.66 82 145.32 82 146 C82.66 146 83.32 146 84 146 C85.01579224 150.21763609 85.16994525 154.32082638 85.20532227 158.63598633 C85.21522186 159.38774139 85.22512146 160.13949646 85.23532104 160.91403198 C85.26678432 163.38666691 85.29163314 165.85932101 85.31640625 168.33203125 C85.3369889 170.05124904 85.35798571 171.77046191 85.37937927 173.4896698 C85.4344646 178.00560518 85.48393337 182.52158521 85.53222656 187.03759766 C85.58254068 191.64945428 85.63817493 196.26124641 85.69335938 200.87304688 C85.80077526 209.91530943 85.90225676 218.95762808 86 228 C101.15138371 222.07357659 111.92540716 209.82483111 118.37890625 195.16796875 C124.82000638 179.41034328 124.05129664 162.78512577 118 147 C116.42946499 143.28336459 114.77233003 139.62456019 113 136 C112.34 136 111.68 136 111 136 C110.7525 135.278125 110.505 134.55625 110.25 133.8125 C107.31116507 127.2001214 101.90893537 122.95830226 96 119 C95.34 119 94.68 119 94 119 C94 118.34 94 117.68 94 117 C84.96166657 111.04623347 84.96166657 111.04623347 75 108 C75 107.34 75 106.68 75 106 C69.49231109 102.9925339 63.98272655 99.98872964 58.46484375 97 C56.62239583 96 54.77994792 95 52.9375 94 C52.02162109 93.505 51.10574219 93.01 50.16210938 92.5 C43.10612823 88.66490197 36.1515294 84.67393242 29.39819336 80.32421875 C25.5526534 78.20081361 23.47414905 79.07913493 19.8125 81 Z M-34.25 112 C-35.00361816 112.42063721 -35.75723633 112.84127441 -36.53369141 113.2746582 C-41.23590754 115.91693768 -45.88873416 118.65162746 -50.47753906 121.48632812 C-53.21025064 123.12616667 -55.98724048 124.65725252 -58.7890625 126.17578125 C-59.7682666 126.70727783 -60.7474707 127.23877441 -61.75634766 127.78637695 C-62.49675293 128.18687256 -63.2371582 128.58736816 -64 129 C-64.22867356 135.29811588 -64.3859904 141.59515878 -64.49438477 147.89648438 C-64.53957687 150.03849279 -64.60094654 152.18022459 -64.67895508 154.32128906 C-64.78847371 157.40499015 -64.83923294 160.48501819 -64.87890625 163.5703125 C-64.92535782 164.52366486 -64.97180939 165.47701721 -65.01966858 166.45925903 C-65.02177194 169.24550845 -64.91763345 171.36541853 -64 174 C-61.30204716 176.64871139 -58.37363364 178.33434963 -55 180 C-53.56140625 180.76570313 -53.56140625 180.76570313 -52.09375 181.546875 C-51.2378125 181.94390625 -50.381875 182.3409375 -49.5 182.75 C-45.75045861 184.54283984 -42.18276023 186.4675008 -38.6640625 188.671875 C-37.91318359 189.13754883 -37.16230469 189.60322266 -36.38867188 190.08300781 C-34.90261107 191.01323828 -33.42680726 191.96010082 -31.96289062 192.92480469 C-27.80147248 195.5577461 -27.80147248 195.5577461 -23.00390625 195.578125 C-19.1977358 193.5785244 -15.48495856 191.48540956 -11.8125 189.25 C-10.30292959 188.34494118 -8.792512 187.44129389 -7.28125 186.5390625 C-6.55035156 186.10239258 -5.81945312 185.66572266 -5.06640625 185.21582031 C-1.56529234 183.1558549 2.01190619 181.24413341 5.60546875 179.3515625 C6.39566406 178.90554688 7.18585938 178.45953125 8 178 C9.02730225 177.52320801 10.05460449 177.04641602 11.11303711 176.55517578 C14.30279729 173.73200199 14.43373271 173.40396759 14.68115234 169.41503906 C14.68020464 167.53163384 14.64642955 165.64805875 14.5859375 163.765625 C14.57320297 162.27588165 14.57320297 162.27588165 14.56021118 160.75604248 C14.52664388 157.58625459 14.45135609 154.41901785 14.375 151.25 C14.34490481 149.10029717 14.31752823 146.95055444 14.29296875 144.80078125 C14.22684253 139.53298486 14.12646213 134.26667466 14 129 C12.95666504 128.413396 11.91333008 127.82679199 10.83837891 127.22241211 C9.42610039 126.428234 8.01382872 125.63404372 6.6015625 124.83984375 C5.86878082 124.42782211 5.13599915 124.01580048 4.38101196 123.59129333 C0.48755229 121.40150763 -3.40311576 119.20700665 -7.2890625 117.00390625 C-8.73424781 116.18987832 -10.17955374 115.37606448 -11.625 114.5625 C-12.36105469 114.14291016 -13.09710938 113.72332031 -13.85546875 113.29101562 C-22.09532873 108.66991347 -25.8608086 107.0858489 -34.25 112 Z M35 143 C34.99857498 144.22695587 34.99714996 145.45391174 34.99568176 146.7180481 C34.97900937 158.2832509 34.93622801 169.84810194 34.86790943 181.41311836 C34.83362467 187.35879685 34.80852707 193.30421798 34.80444336 199.25 C34.80016371 204.98849326 34.77172776 210.72640579 34.72656822 216.46471786 C34.7135827 218.6535186 34.70928924 220.84238879 34.71384621 223.0312233 C34.71874448 226.09843839 34.69269259 229.16395121 34.65942383 232.23095703 C34.66804947 233.13510849 34.67667511 234.03925995 34.68556213 234.97080994 C34.6076598 239.25767061 34.35884568 242.10941649 31.6089325 245.50949097 C29.1438577 247.86267222 27.09811631 249.36888528 24.0625 250.875 C19.71152758 253.11464264 15.4263491 255.43037274 11.1875 257.875 C9.99489929 258.56008322 8.80218995 259.24497737 7.609375 259.9296875 C7.01318359 260.27225586 6.41699219 260.61482422 5.80273438 260.96777344 C4.02277687 261.9869582 2.23874736 262.99859058 0.453125 264.0078125 C-6.41590409 267.89651708 -13.17146481 271.93340997 -19.87109375 276.109375 C-23.81665802 278.49346128 -27.85956135 280.65566902 -31.953125 282.7734375 C-34.14181635 283.83584177 -34.14181635 283.83584177 -35 286 C-32.02031158 289.34237126 -29.33417855 290.97484551 -25.1875 292.625 C-24.19105469 293.02976562 -23.19460937 293.43453125 -22.16796875 293.8515625 C-5.86677311 299.76099717 13.17858325 299.14236324 29 292 C30.66479579 291.32867504 32.33079211 290.66027817 34 290 C34 289.34 34 288.68 34 288 C35.98 287.34 37.96 286.68 40 286 C40 285.34 40 284.68 40 284 C40.66 284 41.32 284 42 284 C42 283.34 42 282.68 42 282 C42.56847656 281.76152344 43.13695312 281.52304687 43.72265625 281.27734375 C52.09875074 276.57925988 56.70689118 267.63468691 60 259 C60.30679688 258.26523437 60.61359375 257.53046875 60.9296875 256.7734375 C63.75462719 249.80525293 64.15059403 242.96305785 64.17700195 235.55786133 C64.18357315 234.74396439 64.19014435 233.93006744 64.19691467 233.09150696 C64.21648836 230.42168059 64.22826783 227.75190974 64.23828125 225.08203125 C64.24235678 224.16670813 64.2464323 223.251385 64.25063133 222.30832481 C64.27141338 217.47321173 64.28575486 212.63812646 64.29516602 207.80297852 C64.30627824 202.80930712 64.34075535 197.81607544 64.38033772 192.82256031 C64.40643823 188.97844092 64.41485146 185.13442811 64.41844749 181.29022789 C64.42332211 179.44859498 64.43496095 177.6069671 64.45348549 175.76542091 C64.47776142 173.19457056 64.47693469 170.62488427 64.4699707 168.05395508 C64.48278076 167.29387146 64.49559082 166.53378784 64.50878906 165.75067139 C64.47431915 162.26501069 64.295477 160.37742754 62.11552429 157.59286499 C59.86136919 155.89561918 57.60793064 154.41815533 55.15625 153.01953125 C54.23972656 152.49552734 53.32320313 151.97152344 52.37890625 151.43164062 C51.42886719 150.89732422 50.47882813 150.36300781 49.5 149.8125 C48.07494141 148.99362305 48.07494141 148.99362305 46.62109375 148.15820312 C41.0501211 144.98207434 41.0501211 144.98207434 35 143 Z M6.0625 202.625 C1.08458734 205.74882753 -3.95175977 208.66706683 -9.1328125 211.4453125 C-14.20525193 214.19576331 -19.19452243 217.09322424 -24.19726562 219.96777344 C-25.97722313 220.9869582 -27.76125264 221.99859058 -29.546875 223.0078125 C-35.32568248 226.27931926 -41.04672166 229.6178494 -46.6875 233.125 C-51.56555448 236.15521654 -56.5020451 238.99494004 -61.578125 241.6796875 C-63.675743 242.82322764 -65.63000041 244.06635348 -67.625 245.375 C-72.02092205 247.49155506 -75.21479921 248.00741069 -80 247 C-83.88584201 245.33870298 -87.41470095 243.22730917 -91 241 C-92.49953901 240.10339522 -93.99953752 239.20755849 -95.5 238.3125 C-96.30566406 237.82394531 -97.11132812 237.33539063 -97.94140625 236.83203125 C-108.03018087 230.78907429 -118.21838174 224.90188652 -128.578125 219.3359375 C-132.03280054 217.4302939 -135.39049516 215.37276131 -138.76171875 213.32421875 C-141.45035937 211.73355702 -144.17797509 210.33674864 -147 209 C-149.16962004 222.38923049 -145.41669691 238.16504034 -137.76953125 249.4140625 C-127.22476582 264.03393823 -112.78959448 274.47277688 -94.75390625 277.5546875 C-78.31496003 279.50478102 -64.33355557 277.50777338 -50 269 C-48.54580439 268.19408077 -47.08851848 267.39372334 -45.62890625 266.59765625 C-38.59732872 262.76019704 -31.69646998 258.92783738 -25.11328125 254.3515625 C-21.66117442 252.14374556 -17.96791205 250.44298056 -14.28515625 248.65625 C-8.38746622 245.6828605 -2.70472674 242.32494429 3 239 C3 238.34 3 237.68 3 237 C3.721875 236.9175 4.44375 236.835 5.1875 236.75 C8.58712309 235.84343384 10.42430315 234.36105545 13 232 C14.48679725 229.02640551 14.11112605 226.33700821 14.09765625 223.0234375 C14.0962413 222.33819 14.09482635 221.6529425 14.09336853 220.94692993 C14.08776675 218.75624239 14.07521406 216.5656567 14.0625 214.375 C14.05748522 212.89062648 14.05292228 211.40625135 14.04882812 209.921875 C14.03779677 206.28121685 14.02053099 202.64061836 14 199 C10.79219473 199 8.73676252 200.92695459 6.0625 202.625 Z " fill="#0C0C0C" transform="translate(275,98)"/>
<path d="M0 0 C5.47511742 0.60834638 5.47511742 0.60834638 7.67793274 2.25202942 C9.39459721 4.52171651 9.36332595 5.82647373 9.34057617 8.6550293 C9.34034958 9.59577805 9.34012299 10.53652679 9.33988953 11.50578308 C9.32440567 12.51836685 9.30892181 13.53095062 9.29296875 14.57421875 C9.28872391 15.61318802 9.28447906 16.65215729 9.28010559 17.72261047 C9.26329849 21.04450276 9.22564196 24.36579075 9.1875 27.6875 C9.17245582 29.93814229 9.15876695 32.18879407 9.14648438 34.43945312 C9.11338836 39.95984197 9.06316869 45.47987782 9 51 C8.01 51 7.02 51 6 51 C6.495 50.505 6.495 50.505 7 50 C7.0928726 48.58774954 7.11746772 47.17091066 7.11352539 45.75561523 C7.11344986 44.85475693 7.11337433 43.95389862 7.11329651 43.02574158 C7.10813522 42.04658279 7.10297394 41.06742401 7.09765625 40.05859375 C7.09553383 38.56248314 7.09553383 38.56248314 7.09336853 37.03614807 C7.08775114 33.83656876 7.07519571 30.63705831 7.0625 27.4375 C7.05748724 25.27408955 7.05292395 23.11067801 7.04882812 20.94726562 C7.03777607 15.63148675 7.02102104 10.31574829 7 5 C3.535 3.02 3.535 3.02 0 1 C0 0.67 0 0.34 0 0 Z " fill="#313131" transform="translate(281,222)"/>
<path d="M0 0 C0.33 0.99 0.66 1.98 1 3 C-0.62339805 4.70884005 -2.29319053 6.37446717 -4 8 C-4.66 8 -5.32 8 -6 8 C-5.67 8.99 -5.34 9.98 -5 11 C-6.65 12.32 -8.3 13.64 -10 15 C-10.66 14.67 -11.32 14.34 -12 14 C-10.75314243 12.41419086 -9.50236974 10.8314596 -8.25 9.25 C-7.20585937 7.92742187 -7.20585937 7.92742187 -6.140625 6.578125 C-4.20054103 4.24152752 -2.18487814 2.1061438 0 0 Z " fill="#606060" transform="translate(167,104)"/>
<path d="M0 0 C2.97 0.495 2.97 0.495 6 1 C6 1.66 6 2.32 6 3 C7.65 3 9.3 3 11 3 C11 3.66 11 4.32 11 5 C11.66 5 12.32 5 13 5 C13.33 5.99 13.66 6.98 14 8 C9.02790438 6.23570801 4.56561939 3.6060834 0 1 C0 0.67 0 0.34 0 0 Z " fill="#6F6F6F" transform="translate(314,184)"/>
<path d="M0 0 C0.33 0.99 0.66 1.98 1 3 C-0.28548409 4.33929505 -1.57858155 5.67128643 -2.875 7 C-3.59429687 7.7425 -4.31359375 8.485 -5.0546875 9.25 C-7 11 -7 11 -9 11 C-7.59155282 7.78475695 -5.89655214 5.67816132 -3.375 3.25 C-2.74335937 2.63640625 -2.11171875 2.0228125 -1.4609375 1.390625 C-0.73777344 0.70226562 -0.73777344 0.70226562 0 0 Z " fill="#505050" transform="translate(109,166)"/>
<path d="M0 0 C2.97 0 5.94 0 9 0 C6.53698577 2.46301423 4.72639964 2.76766521 1.375 3.625 C-0.12933594 4.01558594 -0.12933594 4.01558594 -1.6640625 4.4140625 C-2.43492187 4.60742188 -3.20578125 4.80078125 -4 5 C-3.67 4.34 -3.34 3.68 -3 3 C-2.34 3 -1.68 3 -1 3 C-0.67 2.01 -0.34 1.02 0 0 Z " fill="#59595C" transform="translate(199,105)"/>
<path d="M0 0 C0 0.66 0 1.32 0 2 C-2.81763407 4.81763407 -4.28566635 5.94608803 -8.3125 6.25 C-9.199375 6.1675 -10.08625 6.085 -11 6 C-3.8 0 -3.8 0 0 0 Z " fill="#606060" transform="translate(220,140)"/>
<path d="M0 0 C0.66 0.33 1.32 0.66 2 1 C-0.16687491 3.27521866 -2.45620509 5.15794162 -5 7 C-5.99 6.34 -6.98 5.68 -8 5 C-6.71475739 4.13619741 -5.42157581 3.28419631 -4.125 2.4375 C-3.04605469 1.72400391 -3.04605469 1.72400391 -1.9453125 0.99609375 C-1.30335938 0.66738281 -0.66140625 0.33867187 0 0 Z " fill="#696969" transform="translate(275,279)"/>
<path d="M0 0 C3.0831351 1.19899698 6.06279492 2.47700477 9 4 C8.34 4.66 7.68 5.32 7 6 C7 5.34 7 4.68 7 4 C6.05125 3.87625 5.1025 3.7525 4.125 3.625 C1 3 1 3 -1 1 C-0.67 0.67 -0.34 0.34 0 0 Z " fill="#5E5E5E" transform="translate(303,153)"/>
<path d="M0 0 C0.66 0.33 1.32 0.66 2 1 C0.1875 3.5 0.1875 3.5 -2 6 C-4 6 -6 6 -8 6 C-5.36 4.02 -2.72 2.04 0 0 Z " fill="#737373" transform="translate(181,93)"/>
<path d="M0 0 C0.33 0.99 0.66 1.98 1 3 C-0.32 3 -1.64 3 -3 3 C-3.33 3.99 -3.66 4.98 -4 6 C-5.32 5.67 -6.64 5.34 -8 5 C-4.04 2.525 -4.04 2.525 0 0 Z " fill="#5A5A5A" transform="translate(232,132)"/>
<path d="M0 0 C0.66 0.33 1.32 0.66 2 1 C0.68 2.65 -0.64 4.3 -2 6 C-2 5.34 -2 4.68 -2 4 C-3.32 4.33 -4.64 4.66 -6 5 C-4.06745228 2.9754262 -2.36841312 1.57894208 0 0 Z " fill="#686868" transform="translate(240,127)"/>
</svg>
