<?xml version="1.0" encoding="UTF-8"?>
<svg version="1.1" xmlns="http://www.w3.org/2000/svg" width="403" height="328">
<path d="M0 0 C2.33294775 -0.04241723 4.66702567 -0.04092937 7 0 C8.68560712 1.68560712 8.12475509 3.76884367 8.13374341 6.01879168 C8.13151268 6.74280405 8.12928196 7.46681642 8.12698364 8.21276855 C8.12854363 8.97654171 8.13010362 9.74031486 8.13171089 10.52723265 C8.13572384 13.10606491 8.13253011 15.68483909 8.12939453 18.26367188 C8.13074844 20.10453832 8.13252832 21.94540449 8.13470459 23.78627014 C8.13928014 28.80058768 8.13748886 33.81488474 8.1343255 38.82920265 C8.13180253 44.06448041 8.13413927 49.29975636 8.13571167 54.53503418 C8.13753355 63.32853512 8.13512658 72.12202768 8.13037109 80.91552734 C8.12492844 91.09760253 8.12669108 101.27965769 8.1321975 111.46173239 C8.13672811 120.18696308 8.13737944 128.91218773 8.13475883 137.63741922 C8.13319577 142.85601537 8.13300309 148.07460209 8.13629532 153.29319763 C8.13917328 158.19817993 8.13719974 163.10313629 8.13140106 168.00811577 C8.13007306 169.81376032 8.13046826 171.61940703 8.13266373 173.42505074 C8.13537366 175.87914096 8.13199606 178.33314669 8.12698364 180.78723145 C8.12921436 181.51124382 8.13144509 182.23525619 8.13374341 182.98120832 C8.11414986 187.88585014 8.11414986 187.88585014 7 189 C3.5 189.125 3.5 189.125 0 189 C-1.67994278 187.32005722 -1.12472706 185.25483208 -1.13374341 183.01204354 C-1.13151268 182.29260423 -1.12928196 181.57316493 -1.12698364 180.83192444 C-1.12854363 180.07294041 -1.13010362 179.31395637 -1.13171089 178.53197283 C-1.13572383 175.96929396 -1.1325301 173.40667353 -1.12939453 170.84399414 C-1.13074845 169.01460231 -1.13252833 167.18521074 -1.13470459 165.3558197 C-1.13928033 160.37242573 -1.1374887 155.38905236 -1.1343255 150.40565801 C-1.13180224 145.20154465 -1.13413938 139.99743312 -1.13571167 134.7933197 C-1.13753363 126.05109336 -1.13512654 117.30887545 -1.13037109 108.56665039 C-1.12493012 98.44707916 -1.12668983 88.32752807 -1.1321975 78.20795733 C-1.13672991 69.53451523 -1.13737849 60.86107921 -1.13475883 52.18763632 C-1.13319655 47.00086635 -1.13300094 41.81410587 -1.13629532 36.6273365 C-1.13917583 31.75107819 -1.137195 26.87484595 -1.13140106 21.99859047 C-1.13007436 20.20465386 -1.13046606 18.41071508 -1.13266373 16.61677933 C-1.13537878 14.17617594 -1.13198968 11.73565714 -1.12698364 9.2950592 C-1.12921436 8.57785062 -1.13144509 7.86064204 -1.13374341 7.12169987 C-1.11414997 2.22829995 -1.11414997 2.22829995 0 0 Z " fill="#0170C0" transform="translate(200,17)"/>
<path d="M0 0 C3.5 0.125 3.5 0.125 4.5 1.125 C4.59781225 2.59016304 4.62631748 4.06001822 4.62698364 5.52844238 C4.62980347 6.4791713 4.63262329 7.42990021 4.63552856 8.40943909 C4.63350433 9.46090622 4.6314801 10.51237335 4.62939453 11.59570312 C4.63114685 12.69639633 4.63289917 13.79708954 4.63470459 14.93113708 C4.63912568 18.58952384 4.63618421 22.24786271 4.6328125 25.90625 C4.63348547 28.43591318 4.63445543 30.9655763 4.63571167 33.49523926 C4.63718899 38.80493849 4.63512758 44.11462037 4.63037109 49.42431641 C4.62492851 55.57105958 4.62669118 61.71776959 4.6321975 67.86451197 C4.6372744 73.76717564 4.63674706 79.66982896 4.63381577 85.57249451 C4.63314624 88.08922836 4.6339758 90.60596305 4.63629532 93.12269592 C4.63882033 96.63325275 4.63498338 100.1437449 4.62939453 103.65429688 C4.63141876 104.70576401 4.63344299 105.75723114 4.63552856 106.84056091 C4.63270874 107.79128983 4.62988892 108.74201874 4.62698364 109.72155762 C4.62660662 110.55263786 4.62622959 111.38371811 4.62584114 112.2399826 C4.5 114.125 4.5 114.125 3.5 115.125 C0 115.25 0 115.25 -3.5 115.125 C-5.0861724 113.5388276 -4.62598542 111.92194879 -4.62698364 109.72155762 C-4.62980347 108.7708287 -4.63262329 107.82009979 -4.63552856 106.84056091 C-4.63350433 105.78909378 -4.6314801 104.73762665 -4.62939453 103.65429688 C-4.63114685 102.55360367 -4.63289917 101.45291046 -4.63470459 100.31886292 C-4.63912568 96.66047616 -4.63618421 93.00213729 -4.6328125 89.34375 C-4.63348547 86.81408682 -4.63445543 84.2844237 -4.63571167 81.75476074 C-4.63718899 76.44506151 -4.63512758 71.13537963 -4.63037109 65.82568359 C-4.62492851 59.67894042 -4.62669118 53.53223041 -4.6321975 47.38548803 C-4.6372744 41.48282436 -4.63674706 35.58017104 -4.63381577 29.67750549 C-4.63314624 27.16077164 -4.6339758 24.64403695 -4.63629532 22.12730408 C-4.63882033 18.61674725 -4.63498338 15.1062551 -4.62939453 11.59570312 C-4.63141876 10.54423599 -4.63344299 9.49276886 -4.63552856 8.40943909 C-4.63270874 7.45871017 -4.62988892 6.50798126 -4.62698364 5.52844238 C-4.62660662 4.69736214 -4.62622959 3.86628189 -4.62584114 3.0100174 C-4.39787426 -0.40477627 -3.53677103 0.12631325 0 0 Z " fill="#0070BF" transform="translate(177.5,53.875)"/>
<path d="M0 0 C3.5 0.125 3.5 0.125 4.5 1.125 C4.59781225 2.59016304 4.62631748 4.06001822 4.62698364 5.52844238 C4.62980347 6.4791713 4.63262329 7.42990021 4.63552856 8.40943909 C4.63350433 9.46090622 4.6314801 10.51237335 4.62939453 11.59570312 C4.63114685 12.69639633 4.63289917 13.79708954 4.63470459 14.93113708 C4.63912568 18.58952384 4.63618421 22.24786271 4.6328125 25.90625 C4.63348547 28.43591318 4.63445543 30.9655763 4.63571167 33.49523926 C4.63718899 38.80493849 4.63512758 44.11462037 4.63037109 49.42431641 C4.62492851 55.57105958 4.62669118 61.71776959 4.6321975 67.86451197 C4.6372744 73.76717564 4.63674706 79.66982896 4.63381577 85.57249451 C4.63314624 88.08922836 4.6339758 90.60596305 4.63629532 93.12269592 C4.63882033 96.63325275 4.63498338 100.1437449 4.62939453 103.65429688 C4.63141876 104.70576401 4.63344299 105.75723114 4.63552856 106.84056091 C4.63270874 107.79128983 4.62988892 108.74201874 4.62698364 109.72155762 C4.62660662 110.55263786 4.62622959 111.38371811 4.62584114 112.2399826 C4.5 114.125 4.5 114.125 3.5 115.125 C0 115.25 0 115.25 -3.5 115.125 C-5.0861724 113.5388276 -4.62598542 111.92194879 -4.62698364 109.72155762 C-4.62980347 108.7708287 -4.63262329 107.82009979 -4.63552856 106.84056091 C-4.63350433 105.78909378 -4.6314801 104.73762665 -4.62939453 103.65429688 C-4.63114685 102.55360367 -4.63289917 101.45291046 -4.63470459 100.31886292 C-4.63912568 96.66047616 -4.63618421 93.00213729 -4.6328125 89.34375 C-4.63348547 86.81408682 -4.63445543 84.2844237 -4.63571167 81.75476074 C-4.63718899 76.44506151 -4.63512758 71.13537963 -4.63037109 65.82568359 C-4.62492851 59.67894042 -4.62669118 53.53223041 -4.6321975 47.38548803 C-4.6372744 41.48282436 -4.63674706 35.58017104 -4.63381577 29.67750549 C-4.63314624 27.16077164 -4.6339758 24.64403695 -4.63629532 22.12730408 C-4.63882033 18.61674725 -4.63498338 15.1062551 -4.62939453 11.59570312 C-4.63141876 10.54423599 -4.63344299 9.49276886 -4.63552856 8.40943909 C-4.63270874 7.45871017 -4.62988892 6.50798126 -4.62698364 5.52844238 C-4.62660662 4.69736214 -4.62622959 3.86628189 -4.62584114 3.0100174 C-4.39787426 -0.40477627 -3.53677103 0.12631325 0 0 Z " fill="#0370BD" transform="translate(230.5,53.875)"/>
<path d="M0 0 C2.64 0 5.28 0 8 0 C8 3.96 8 7.92 8 12 C11.96 12 15.92 12 20 12 C20 8.04 20 4.08 20 0 C22.64 0 25.28 0 28 0 C28 10.23 28 20.46 28 31 C25.36 31 22.72 31 20 31 C20 26.71 20 22.42 20 18 C16.04 18 12.08 18 8 18 C8 22.29 8 26.58 8 31 C5.36 31 2.72 31 0 31 C0 20.77 0 10.54 0 0 Z " fill="#3F3F3F" transform="translate(335,270)"/>
<path d="M0 0 C2.5 0.25 2.5 0.25 4.5 2.25 C4.74723816 4.6856842 4.74723816 4.6856842 4.74291992 7.78540039 C4.74599655 8.94322525 4.74907318 10.10105011 4.75224304 11.29396057 C4.74505753 12.54918015 4.73787201 13.80439972 4.73046875 15.09765625 C4.72978142 17.02090981 4.72978142 17.02090981 4.7290802 18.98301697 C4.72751538 21.69747324 4.71922513 24.41179761 4.70581055 27.1262207 C4.6888037 30.6124199 4.68499668 34.0984743 4.68575573 37.58471012 C4.6854191 40.90154504 4.67658537 44.21833206 4.66796875 47.53515625 C4.66685593 48.79240005 4.6657431 50.04964386 4.66459656 51.34498596 C4.65821671 52.49965866 4.65183685 53.65433136 4.64526367 54.84399414 C4.64145187 55.86610489 4.63764008 56.88821564 4.63371277 57.94129944 C4.5 60.25 4.5 60.25 3.5 61.25 C0 61.375 0 61.375 -3.5 61.25 C-5.22815482 59.52184518 -4.63648091 57.19903761 -4.64526367 54.84399414 C-4.65164352 53.68932144 -4.65802338 52.53464874 -4.66459656 51.34498596 C-4.66570938 50.08774216 -4.6668222 48.83049835 -4.66796875 47.53515625 C-4.67129715 46.25394394 -4.67462555 44.97273163 -4.67805481 43.6526947 C-4.68405192 40.9365047 -4.68589413 38.22034655 -4.68530273 35.50415039 C-4.6852011 32.01909408 -4.69885216 28.53424145 -4.71607494 25.04923344 C-4.72985066 21.73203767 -4.72928324 18.4148803 -4.73046875 15.09765625 C-4.73765427 13.84243668 -4.74483978 12.5872171 -4.75224304 11.29396057 C-4.74916641 10.13613571 -4.74608978 8.97831085 -4.74291992 7.78540039 C-4.74434494 6.76249405 -4.74576996 5.73958771 -4.74723816 4.6856842 C-4.39605316 1.22596031 -3.44810889 0.34481089 0 0 Z " fill="#0170BF" transform="translate(149.5,82.75)"/>
<path d="M0 0 C2.5 0.25 2.5 0.25 4.5 2.25 C4.74723816 4.6856842 4.74723816 4.6856842 4.74291992 7.78540039 C4.74599655 8.94322525 4.74907318 10.10105011 4.75224304 11.29396057 C4.74505753 12.54918015 4.73787201 13.80439972 4.73046875 15.09765625 C4.72978142 17.02090981 4.72978142 17.02090981 4.7290802 18.98301697 C4.72751538 21.69747324 4.71922513 24.41179761 4.70581055 27.1262207 C4.6888037 30.6124199 4.68499668 34.0984743 4.68575573 37.58471012 C4.6854191 40.90154504 4.67658537 44.21833206 4.66796875 47.53515625 C4.66685593 48.79240005 4.6657431 50.04964386 4.66459656 51.34498596 C4.65821671 52.49965866 4.65183685 53.65433136 4.64526367 54.84399414 C4.64145187 55.86610489 4.63764008 56.88821564 4.63371277 57.94129944 C4.5 60.25 4.5 60.25 3.5 61.25 C0 61.375 0 61.375 -3.5 61.25 C-5.22815482 59.52184518 -4.63648091 57.19903761 -4.64526367 54.84399414 C-4.65164352 53.68932144 -4.65802338 52.53464874 -4.66459656 51.34498596 C-4.66570938 50.08774216 -4.6668222 48.83049835 -4.66796875 47.53515625 C-4.67129715 46.25394394 -4.67462555 44.97273163 -4.67805481 43.6526947 C-4.68405192 40.9365047 -4.68589413 38.22034655 -4.68530273 35.50415039 C-4.6852011 32.01909408 -4.69885216 28.53424145 -4.71607494 25.04923344 C-4.72985066 21.73203767 -4.72928324 18.4148803 -4.73046875 15.09765625 C-4.73765427 13.84243668 -4.74483978 12.5872171 -4.75224304 11.29396057 C-4.74916641 10.13613571 -4.74608978 8.97831085 -4.74291992 7.78540039 C-4.74434494 6.76249405 -4.74576996 5.73958771 -4.74723816 4.6856842 C-4.39605316 1.22596031 -3.44810889 0.34481089 0 0 Z " fill="#0170BF" transform="translate(258.5,82.75)"/>
<path d="M0 0 C2.701875 -0.0825 5.40375 -0.165 8.1875 -0.25 C9.02949951 -0.28641602 9.87149902 -0.32283203 10.73901367 -0.36035156 C14.63640269 -0.41779555 16.57950004 -0.25779671 19.98828125 1.83203125 C22.56643965 4.61043497 23 6.22513853 23 10 C21.6875 12.6875 21.6875 12.6875 20 15 C19.01 16.485 19.01 16.485 18 18 C18.49371094 18.68707031 18.98742187 19.37414062 19.49609375 20.08203125 C20.13675781 20.98308594 20.77742188 21.88414062 21.4375 22.8125 C22.07558594 23.70582031 22.71367187 24.59914063 23.37109375 25.51953125 C25 28 25 28 26 31 C22.81516844 31.63696631 20.15391948 31.86719881 17 31 C14.99882089 28.59335323 13.7262171 26.20661983 12.38671875 23.3828125 C11.03607567 20.56128559 11.03607567 20.56128559 7 19 C7 22.96 7 26.92 7 31 C4.69 31 2.38 31 0 31 C0 20.77 0 10.54 0 0 Z M7 6 C7 8.31 7 10.62 7 13 C8.98 13 10.96 13 13 13 C14.10636395 10.60931266 14.10636395 10.60931266 15 8 C14.67 7.34 14.34 6.68 14 6 C11.69 6 9.38 6 7 6 Z " fill="#3E3E3E" transform="translate(144,270)"/>
<path d="M0 0 C2.97 0 5.94 0 9 0 C12.02960594 6.95736939 14.77738495 13.97457813 17.3125 21.125 C17.57885254 21.87128662 17.84520508 22.61757324 18.11962891 23.38647461 C20 28.75040909 20 28.75040909 20 31 C17.36 31 14.72 31 12 31 C11.34 29.35 10.68 27.7 10 26 C6.37 25.67 2.74 25.34 -1 25 C-1.33 26.98 -1.66 28.96 -2 31 C-4.97 31 -7.94 31 -11 31 C-9.92053369 27.70702131 -8.8365343 24.41564674 -7.75 21.125 C-7.44964844 20.2071875 -7.14929687 19.289375 -6.83984375 18.34375 C-4.78321595 12.13010855 -2.50202288 6.04792522 0 0 Z M4 8 C2.515 13.445 2.515 13.445 1 19 C3.31 19 5.62 19 8 19 C7.71758359 17.53984709 7.42373386 16.08190207 7.125 14.625 C6.88136719 13.40683594 6.88136719 13.40683594 6.6328125 12.1640625 C6.13341068 9.81326077 6.13341068 9.81326077 4 8 Z " fill="#3E3E3E" transform="translate(60,270)"/>
<path d="M0 0 C2.64 0 5.28 0 8 0 C8.01981934 0.65597168 8.03963867 1.31194336 8.06005859 1.98779297 C8.15512507 4.95061069 8.26487752 7.91270532 8.375 10.875 C8.4059375 11.90753906 8.436875 12.94007813 8.46875 14.00390625 C8.50742188 14.99003906 8.54609375 15.97617187 8.5859375 16.9921875 C8.6173584 17.90339355 8.6487793 18.81459961 8.68115234 19.75341797 C8.79882511 22.19931186 8.79882511 22.19931186 11 24 C14.09926819 23.67801034 14.09926819 23.67801034 17 23 C17.80652508 20.11832319 18.17515006 17.43968453 18.31640625 14.453125 C18.35830078 13.60878906 18.40019531 12.76445312 18.44335938 11.89453125 C18.48267578 11.02183594 18.52199219 10.14914062 18.5625 9.25 C18.60568359 8.36183594 18.64886719 7.47367187 18.69335938 6.55859375 C18.79913615 4.37254037 18.90122546 2.18637911 19 0 C21.31 0 23.62 0 26 0 C26.08736736 3.72901814 26.14051482 7.45777165 26.1875 11.1875 C26.21263672 12.24259766 26.23777344 13.29769531 26.26367188 14.38476562 C26.27333984 15.40634766 26.28300781 16.42792969 26.29296875 17.48046875 C26.3086792 18.41785889 26.32438965 19.35524902 26.34057617 20.32104492 C25.82752136 24.35670833 24.04011625 26.99286841 21.15234375 29.7890625 C17.0653838 32.08844106 12.54186065 31.48590485 8 31 C4.53223873 29.69958952 3.43054564 28.64216977 1.38671875 25.59375 C-0.55806908 20.55373648 -0.32205251 15.97259959 -0.1875 10.625 C-0.16719727 9.09166016 -0.16719727 9.09166016 -0.14648438 7.52734375 C-0.11130217 5.01767951 -0.06207539 2.5091191 0 0 Z " fill="#3E3E3E" transform="translate(111,270)"/>
<path d="M0 0 C2.701875 -0.061875 5.40375 -0.12375 8.1875 -0.1875 C9.02949951 -0.21481201 9.87149902 -0.24212402 10.73901367 -0.27026367 C15.31952096 -0.32089807 18.28298447 0.01917007 22 3 C23.73403022 6.46806043 23.46579045 10.2080721 23 14 C21.06257567 17.50226707 19.70640303 18.68437311 16.0625 20.3125 C13 21 13 21 8 21 C8 24.3 8 27.6 8 31 C5.36 31 2.72 31 0 31 C0 20.77 0 10.54 0 0 Z M8 6 C8 8.97 8 11.94 8 15 C11.81813447 14.72459296 11.81813447 14.72459296 15 13 C15.16666667 10 15.16666667 10 15 7 C13.87465895 5.64381501 13.87465895 5.64381501 10.9375 5.9375 C9.968125 5.958125 8.99875 5.97875 8 6 Z " fill="#3E3E3E" transform="translate(233,270)"/>
<path d="M0 0 C7.92 0 15.84 0 24 0 C24 5.04669673 23.97579851 5.65586538 21.19140625 9.35546875 C20.60939453 10.14244141 20.02738281 10.92941406 19.42773438 11.74023438 C18.81220703 12.54783203 18.19667969 13.35542969 17.5625 14.1875 C16.35455427 15.80530719 15.14747964 17.42376525 13.94140625 19.04296875 C13.40201416 19.75477295 12.86262207 20.46657715 12.30688477 21.19995117 C10.94684687 22.96997708 10.94684687 22.96997708 10 25 C14.62 25 19.24 25 24 25 C24 26.98 24 28.96 24 31 C15.75 31 7.5 31 -1 31 C-1 25.81896535 -0.85283548 25.18184657 2.0625 21.35546875 C3.00996094 20.09379883 3.00996094 20.09379883 3.9765625 18.80664062 C4.64429687 17.94232422 5.31203125 17.07800781 6 16.1875 C6.66773437 15.30384766 7.33546875 14.42019531 8.0234375 13.50976562 C9.67166006 11.33175725 11.33445167 9.16478795 13 7 C8.71 6.67 4.42 6.34 0 6 C0 4.02 0 2.04 0 0 Z " fill="#3E3E3E" transform="translate(83,270)"/>
<path d="M0 0 C6.27 0 12.54 0 19 0 C19 1.65 19 3.3 19 5 C18 6 18 6 15.71484375 6.09765625 C14.34005859 6.08025391 14.34005859 6.08025391 12.9375 6.0625 C12.01839844 6.05347656 11.09929687 6.04445313 10.15234375 6.03515625 C9.44207031 6.02355469 8.73179687 6.01195312 8 6 C8 8.31 8 10.62 8 13 C11.3 13 14.6 13 18 13 C18 14.98 18 16.96 18 19 C14.7 19 11.4 19 8 19 C8 20.98 8 22.96 8 25 C11.63 25 15.26 25 19 25 C19 26.98 19 28.96 19 31 C12.73 31 6.46 31 0 31 C0 20.77 0 10.54 0 0 Z " fill="#3E3E3E" transform="translate(260,270)"/>
<path d="M0 0 C1.07507813 -0.00257813 2.15015625 -0.00515625 3.2578125 -0.0078125 C5.875 0.125 5.875 0.125 6.875 1.125 C6.91580783 3.12458364 6.91754356 5.12545254 6.875 7.125 C3.245 7.125 -0.385 7.125 -4.125 7.125 C-4.125 8.115 -4.125 9.105 -4.125 10.125 C-2.95130859 10.73988281 -2.95130859 10.73988281 -1.75390625 11.3671875 C-0.23603516 12.17542969 -0.23603516 12.17542969 1.3125 13 C2.32183594 13.53367187 3.33117187 14.06734375 4.37109375 14.6171875 C6.875 16.125 6.875 16.125 7.875 18.125 C8.45894161 25.36587591 8.45894161 25.36587591 6 28.5625 C2.29259891 31.28853021 -0.03720583 31.26014999 -4.625 31.25 C-6.37296875 31.25386719 -6.37296875 31.25386719 -8.15625 31.2578125 C-11.125 31.125 -11.125 31.125 -13.125 30.125 C-13.125 27.485 -13.125 24.845 -13.125 22.125 C-12.444375 22.455 -11.76375 22.785 -11.0625 23.125 C-7.61659762 24.29807315 -4.74102578 24.26680493 -1.125 24.125 C-1.33047472 22.17891112 -1.33047472 22.17891112 -2.125 20.125 C-3.86716392 18.8868382 -3.86716392 18.8868382 -6 18.0625 C-8.95436185 16.79245146 -11.12025612 15.69107217 -13.125 13.125 C-13.89833333 6.165 -13.89833333 6.165 -11.3125 2.6875 C-7.56946491 0.0139035 -4.47617462 -0.01078596 0 0 Z " fill="#3E3E3E" transform="translate(220.125,269.875)"/>
<path d="M0 0 C5.94 0 11.88 0 18 0 C18 1.98 18 3.96 18 6 C14.37 6 10.74 6 7 6 C7 8.31 7 10.62 7 13 C10.3 13 13.6 13 17 13 C17 14.98 17 16.96 17 19 C13.7 19 10.4 19 7 19 C7 20.98 7 22.96 7 25 C10.96 25 14.92 25 19 25 C19 26.98 19 28.96 19 31 C12.73 31 6.46 31 0 31 C0 20.77 0 10.54 0 0 Z " fill="#3E3E3E" transform="translate(284,270)"/>
<path d="M0 0 C5.94 0 11.88 0 18 0 C18 1.98 18 3.96 18 6 C14.37 6 10.74 6 7 6 C7 8.31 7 10.62 7 13 C10.3 13 13.6 13 17 13 C17 14.98 17 16.96 17 19 C13.7 19 10.4 19 7 19 C7 20.98 7 22.96 7 25 C10.96 25 14.92 25 19 25 C19 26.98 19 28.96 19 31 C12.73 31 6.46 31 0 31 C0 20.77 0 10.54 0 0 Z " fill="#3D3D3D" transform="translate(173,270)"/>
<path d="M0 0 C1.07507813 -0.00257813 2.15015625 -0.00515625 3.2578125 -0.0078125 C5.875 0.125 5.875 0.125 6.875 1.125 C6.91592937 3.45797433 6.91741723 5.79205225 6.875 8.125 C5.87919922 7.96451172 5.87919922 7.96451172 4.86328125 7.80078125 C0.847122 7.25552167 -2.27547356 6.86494089 -6.1875 8.0625 C-8.65182739 10.68581625 -9.04386726 12.57886853 -9.24609375 16.12109375 C-9.05148161 19.34161081 -8.4131002 20.8368998 -6.125 23.125 C-1.43981487 24.18294503 2.20625915 24.43808336 6.875 23.125 C6.875 25.435 6.875 27.745 6.875 30.125 C3.71490467 31.17836511 1.3196864 31.32532888 -2 31.375 C-3.54300781 31.41367187 -3.54300781 31.41367187 -5.1171875 31.453125 C-9.56766854 30.96761798 -12.13365367 29.03373414 -15.375 26.0625 C-17.88586076 21.84784087 -18.3077818 17.9915655 -18.125 13.125 C-16.48188032 7.22909996 -13.96424832 4.55280089 -9.125 1.125 C-5.87030985 0.04010328 -3.41956791 -0.00823992 0 0 Z " fill="#3E3E3E" transform="translate(323.125,269.875)"/>
<path d="M0 0 C2.33294775 -0.04241723 4.66702567 -0.04092937 7 0 C8.90849948 1.90849948 8.13059633 5.31478774 8.1328125 7.84375 C8.13376923 8.52804077 8.13472595 9.21233154 8.13571167 9.9173584 C8.1363933 11.36661877 8.13454023 12.81588218 8.13037109 14.26513672 C8.12502252 16.49062928 8.1303166 18.71592001 8.13671875 20.94140625 C8.13605797 22.34635461 8.1347768 23.75130285 8.1328125 25.15625 C8.13168457 26.44337891 8.13055664 27.73050781 8.12939453 29.05664062 C8 32 8 32 7 33 C3.5 33.125 3.5 33.125 0 33 C-1.87903248 31.12096752 -1.13053475 27.9119394 -1.1328125 25.41015625 C-1.13376923 24.7504332 -1.13472595 24.09071014 -1.13571167 23.41099548 C-1.13639336 22.01300969 -1.13453986 20.61502076 -1.13037109 19.21704102 C-1.12503106 17.07496018 -1.13031199 14.93308983 -1.13671875 12.79101562 C-1.1360578 11.43489537 -1.13477629 10.07877524 -1.1328125 8.72265625 C-1.13168457 7.48265869 -1.13055664 6.24266113 -1.12939453 4.96508789 C-1 2 -1 2 0 0 Z " fill="#0875CC" transform="translate(119,97)"/>
<path d="M0 0 C2.33294775 -0.04241723 4.66702567 -0.04092937 7 0 C8.90849948 1.90849948 8.13059633 5.31478774 8.1328125 7.84375 C8.13376923 8.52804077 8.13472595 9.21233154 8.13571167 9.9173584 C8.1363933 11.36661877 8.13454023 12.81588218 8.13037109 14.26513672 C8.12502252 16.49062928 8.1303166 18.71592001 8.13671875 20.94140625 C8.13605797 22.34635461 8.1347768 23.75130285 8.1328125 25.15625 C8.13168457 26.44337891 8.13055664 27.73050781 8.12939453 29.05664062 C8 32 8 32 7 33 C3.5 33.125 3.5 33.125 0 33 C-1.87903248 31.12096752 -1.13053475 27.9119394 -1.1328125 25.41015625 C-1.13376923 24.7504332 -1.13472595 24.09071014 -1.13571167 23.41099548 C-1.13639336 22.01300969 -1.13453986 20.61502076 -1.13037109 19.21704102 C-1.12503106 17.07496018 -1.13031199 14.93308983 -1.13671875 12.79101562 C-1.1360578 11.43489537 -1.13477629 10.07877524 -1.1328125 8.72265625 C-1.13168457 7.48265869 -1.13055664 6.24266113 -1.12939453 4.96508789 C-1 2 -1 2 0 0 Z " fill="#0878CE" transform="translate(279,97)"/>
<path d="M0 0 C2.33294775 -0.04241723 4.66702567 -0.04092937 7 0 C8.68560712 1.68560712 8.12475509 3.76884367 8.13374341 6.01879168 C8.13151268 6.74280405 8.12928196 7.46681642 8.12698364 8.21276855 C8.12854363 8.97654171 8.13010362 9.74031486 8.13171089 10.52723265 C8.13572384 13.10606491 8.13253011 15.68483909 8.12939453 18.26367188 C8.13074844 20.10453832 8.13252832 21.94540449 8.13470459 23.78627014 C8.13928014 28.80058768 8.13748886 33.81488474 8.1343255 38.82920265 C8.13180253 44.06448041 8.13413927 49.29975636 8.13571167 54.53503418 C8.13753355 63.32853512 8.13512658 72.12202768 8.13037109 80.91552734 C8.12492844 91.09760253 8.12669108 101.27965769 8.1321975 111.46173239 C8.13672811 120.18696308 8.13737944 128.91218773 8.13475883 137.63741922 C8.13319577 142.85601537 8.13300309 148.07460209 8.13629532 153.29319763 C8.13917328 158.19817993 8.13719974 163.10313629 8.13140106 168.00811577 C8.13007306 169.81376032 8.13046826 171.61940703 8.13266373 173.42505074 C8.13537366 175.87914096 8.13199606 178.33314669 8.12698364 180.78723145 C8.12921436 181.51124382 8.13144509 182.23525619 8.13374341 182.98120832 C8.11414986 187.88585014 8.11414986 187.88585014 7 189 C3.5 189.125 3.5 189.125 0 189 C-1 188 -1 188 -1.0625 185.4375 C-1.0315625 184.2309375 -1.0315625 184.2309375 -1 183 C-0.67 183.99 -0.34 184.98 0 186 C2.31 186.33 4.62 186.66 7 187 C6.67 125.95 6.34 64.9 6 2 C4.35 2.33 2.7 2.66 1 3 C0.67 6.3 0.34 9.6 0 13 C-0.33 13 -0.66 13 -1 13 C-1.02696365 11.20841511 -1.04637917 9.41671527 -1.0625 7.625 C-1.07410156 6.62726562 -1.08570313 5.62953125 -1.09765625 4.6015625 C-1 2 -1 2 0 0 Z " fill="#0E6DB0" transform="translate(200,17)"/>
<path d="M0 0 C1.134375 0.020625 2.26875 0.04125 3.4375 0.0625 C5.09977326 3.70367 5.7099556 6.56540369 5.6875 10.5625 C5.69265625 11.4803125 5.6978125 12.398125 5.703125 13.34375 C5.42012598 16.2403282 4.64100245 18.42625653 3.4375 21.0625 C1.10455225 21.10491723 -1.22952567 21.10342937 -3.5625 21.0625 C-5.11856751 19.50643249 -4.69220769 18.00292629 -4.6953125 15.84375 C-4.69660156 14.99425781 -4.69789062 14.14476563 -4.69921875 13.26953125 C-4.69535156 12.37621094 -4.69148438 11.48289062 -4.6875 10.5625 C-4.69136719 9.66917969 -4.69523437 8.77585937 -4.69921875 7.85546875 C-4.69792969 7.00597656 -4.69664063 6.15648438 -4.6953125 5.28125 C-4.69418457 4.49685547 -4.69305664 3.71246094 -4.69189453 2.90429688 C-4.45193596 -0.51126431 -3.53803503 0.06207079 0 0 Z " fill="#107FD6" transform="translate(95.5625,102.9375)"/>
<path d="M0 0 C1.134375 0.020625 2.26875 0.04125 3.4375 0.0625 C5.09977326 3.70367 5.7099556 6.56540369 5.6875 10.5625 C5.69265625 11.4803125 5.6978125 12.398125 5.703125 13.34375 C5.42012598 16.2403282 4.64100245 18.42625653 3.4375 21.0625 C1.10455225 21.10491723 -1.22952567 21.10342937 -3.5625 21.0625 C-5.11856751 19.50643249 -4.69220769 18.00292629 -4.6953125 15.84375 C-4.69660156 14.99425781 -4.69789063 14.14476563 -4.69921875 13.26953125 C-4.69535156 12.37621094 -4.69148438 11.48289062 -4.6875 10.5625 C-4.69136719 9.66917969 -4.69523437 8.77585937 -4.69921875 7.85546875 C-4.69792969 7.00597656 -4.69664062 6.15648438 -4.6953125 5.28125 C-4.69418457 4.49685547 -4.69305664 3.71246094 -4.69189453 2.90429688 C-4.45193596 -0.51126431 -3.53803503 0.06207079 0 0 Z " fill="#0780E0" transform="translate(311.5625,102.9375)"/>
<path d="M0 0 C0.33 0 0.66 0 1 0 C1.02333012 14.45532811 1.04091332 28.91065331 1.05181217 43.36599636 C1.05697489 50.07741868 1.06401713 56.78882932 1.07543945 63.50024414 C1.08626565 69.97113736 1.09227626 76.44201842 1.09487724 82.91292 C1.09673198 85.38778945 1.1003535 87.8626582 1.10573006 90.33752251 C1.11293693 93.79070373 1.11399109 97.24383401 1.11352539 100.69702148 C1.11712067 101.73135818 1.12071594 102.76569489 1.12442017 103.83137512 C1.1230455 104.76672089 1.12167084 105.70206665 1.12025452 106.66575623 C1.12117631 107.4833866 1.1220981 108.30101698 1.12304783 109.14342403 C1 111 1 111 0 112 C-2.33297433 112.04092937 -4.66705225 112.04241723 -7 112 C-7.495 109.525 -7.495 109.525 -8 107 C-7.01 107 -6.02 107 -5 107 C-4.505 106.01 -4.505 106.01 -4 105 C-4 106.32 -4 107.64 -4 109 C-2.68 109.33 -1.36 109.66 0 110 C0 73.7 0 37.4 0 0 Z " fill="#0A6DB3" transform="translate(181,57)"/>
<path d="M0 0 C2.5 0.25 2.5 0.25 4.5 2.25 C4.74723816 4.6856842 4.74723816 4.6856842 4.74291992 7.78540039 C4.74599655 8.94322525 4.74907318 10.10105011 4.75224304 11.29396057 C4.74505753 12.54918015 4.73787201 13.80439972 4.73046875 15.09765625 C4.72978142 17.02090981 4.72978142 17.02090981 4.7290802 18.98301697 C4.72751538 21.69747324 4.71922513 24.41179761 4.70581055 27.1262207 C4.6888037 30.6124199 4.68499668 34.0984743 4.68575573 37.58471012 C4.6854191 40.90154504 4.67658537 44.21833206 4.66796875 47.53515625 C4.66685593 48.79240005 4.6657431 50.04964386 4.66459656 51.34498596 C4.65821671 52.49965866 4.65183685 53.65433136 4.64526367 54.84399414 C4.64145187 55.86610489 4.63764008 56.88821564 4.63371277 57.94129944 C4.5 60.25 4.5 60.25 3.5 61.25 C1.16702567 61.29092937 -1.16705225 61.29241723 -3.5 61.25 C-3.5 60.92 -3.5 60.59 -3.5 60.25 C-1.52 60.25 0.46 60.25 2.5 60.25 C2.5 41.44 2.5 22.63 2.5 3.25 C0.19 4.57 -2.12 5.89 -4.5 7.25 C-4.625 4.875 -4.625 4.875 -4.5 2.25 C-2.5 0.25 -2.5 0.25 0 0 Z " fill="#0E6DAD" transform="translate(149.5,82.75)"/>
<path d="M0 0 C1.28355258 2.56710516 1.0818427 4.31195967 1.02172852 7.18408203 C1.00163223 8.26505157 0.98153595 9.34602112 0.96083069 10.45974731 C0.93379562 11.63060883 0.90676056 12.80147034 0.87890625 14.0078125 C0.85529526 15.20356903 0.83168427 16.39932556 0.80735779 17.63131714 C0.73058708 21.46266154 0.64662032 25.29381059 0.5625 29.125 C0.50929275 31.71743825 0.45655228 34.30988613 0.40429688 36.90234375 C0.27495381 43.26835088 0.13969726 49.63421213 0 56 C0.66 56 1.32 56 2 56 C2 56.99 2 57.98 2 59 C3.32 59 4.64 59 6 59 C6.33 58.01 6.66 57.02 7 56 C7.33 56.99 7.66 57.98 8 59 C7 60 7 60 3.5 60.125 C0 60 0 60 -1 59 C-1.09899561 57.19490627 -1.12799151 55.38593072 -1.12939453 53.578125 C-1.13254669 52.42022461 -1.13569885 51.26232422 -1.13894653 50.06933594 C-1.1369223 48.80895508 -1.13489807 47.54857422 -1.1328125 46.25 C-1.13424759 44.32462402 -1.13424759 44.32462402 -1.13571167 42.36035156 C-1.13718831 39.63996176 -1.13503519 36.91960475 -1.13037109 34.19921875 C-1.12467381 30.70515331 -1.12795299 27.21116467 -1.13394356 23.71710205 C-1.13841754 20.39472847 -1.13528885 17.07237577 -1.1328125 13.75 C-1.13483673 12.48961914 -1.13686096 11.22923828 -1.13894653 9.93066406 C-1.13579437 8.77276367 -1.13264221 7.61486328 -1.12939453 6.421875 C-1.12820114 4.88418457 -1.12820114 4.88418457 -1.12698364 3.31542969 C-1 1 -1 1 0 0 Z " fill="#0F6BAE" transform="translate(255,84)"/>
<path d="M0 0 C0.66 0.33 1.32 0.66 2 1 C1.67 1.66 1.34 2.32 1 3 C0.915085 4.8863912 0.892807 6.77578515 0.90234375 8.6640625 C0.90556641 9.78554687 0.90878906 10.90703125 0.91210938 12.0625 C0.92048828 13.238125 0.92886719 14.41375 0.9375 15.625 C0.94201172 16.80835937 0.94652344 17.99171875 0.95117188 19.2109375 C0.96298533 22.14067507 0.97945742 25.07031272 1 28 C2.65 27.34 4.3 26.68 6 26 C8 29 8 29 7.625 31.1875 C7.41875 31.785625 7.2125 32.38375 7 33 C4.66705225 33.04241723 2.33297433 33.04092937 0 33 C-1.87903248 31.12096752 -1.13053475 27.9119394 -1.1328125 25.41015625 C-1.13376923 24.7504332 -1.13472595 24.09071014 -1.13571167 23.41099548 C-1.13639336 22.01300969 -1.13453986 20.61502076 -1.13037109 19.21704102 C-1.12503106 17.07496018 -1.13031199 14.93308983 -1.13671875 12.79101562 C-1.1360578 11.43489537 -1.13477629 10.07877524 -1.1328125 8.72265625 C-1.13168457 7.48265869 -1.13055664 6.24266113 -1.12939453 4.96508789 C-1 2 -1 2 0 0 Z " fill="#1579C6" transform="translate(119,97)"/>
<path d="M0 0 C1.92325647 3.2435873 2.27080868 5.68673517 2.25 9.4375 C2.25515625 10.36433594 2.2603125 11.29117188 2.265625 12.24609375 C1.98451512 15.16054176 1.21247903 17.34890497 0 20 C-2.31 20 -4.62 20 -7 20 C-7.33 18.68 -7.66 17.36 -8 16 C-7.34 16.33 -6.68 16.66 -6 17 C-6 17.66 -6 18.32 -6 19 C-4.68 19 -3.36 19 -2 19 C-2.20625 18.38125 -2.4125 17.7625 -2.625 17.125 C-2.74875 16.42375 -2.8725 15.7225 -3 15 C-2.34 14.34 -1.68 13.68 -1 13 C-0.53513282 9.87803664 -0.53513282 9.87803664 -0.375 6.375 C-0.30023438 5.18648438 -0.22546875 3.99796875 -0.1484375 2.7734375 C-0.09945313 1.85820313 -0.05046875 0.94296875 0 0 Z " fill="#1C7DC5" transform="translate(315,104)"/>
<path d="M0 0 C1.134375 0.020625 2.26875 0.04125 3.4375 0.0625 C3.4375 0.7225 3.4375 1.3825 3.4375 2.0625 C1.7875 2.0625 0.1375 2.0625 -1.5625 2.0625 C-0.5725 3.5475 -0.5725 3.5475 0.4375 5.0625 C0.4375 6.0525 0.4375 7.0425 0.4375 8.0625 C-1.2125 8.7225 -2.8625 9.3825 -4.5625 10.0625 C-4.58939216 8.58343108 -4.60884621 7.10422517 -4.625 5.625 C-4.63660156 4.80128906 -4.64820313 3.97757813 -4.66015625 3.12890625 C-4.49001835 -0.47121162 -3.73687179 0.06555915 0 0 Z " fill="#0C6FB1" transform="translate(177.5625,53.9375)"/>
<path d="M0 0 C0.66 0.33 1.32 0.66 2 1 C1.67 2.32 1.34 3.64 1 5 C2.32 5 3.64 5 5 5 C5.33 4.01 5.66 3.02 6 2 C5.67 3.65 5.34 5.3 5 7 C2.69 7 0.38 7 -2 7 C-2.33 5.35 -2.66 3.7 -3 2 C-2.01 2 -1.02 2 0 2 C0 1.34 0 0.68 0 0 Z " fill="#136EAB" transform="translate(176,162)"/>
<path d="M0 0 C1.134375 0.020625 2.26875 0.04125 3.4375 0.0625 C3.4375 0.3925 3.4375 0.7225 3.4375 1.0625 C1.7875 1.0625 0.1375 1.0625 -1.5625 1.0625 C-1.5625 2.3825 -1.5625 3.7025 -1.5625 5.0625 C-1.5625 6.3825 -1.5625 7.7025 -1.5625 9.0625 C-2.5525 9.3925 -3.5425 9.7225 -4.5625 10.0625 C-4.58939216 8.58343108 -4.60884621 7.10422517 -4.625 5.625 C-4.63660156 4.80128906 -4.64820313 3.97757812 -4.66015625 3.12890625 C-4.49001835 -0.47121162 -3.73687179 0.06555915 0 0 Z " fill="#197FCF" transform="translate(311.5625,102.9375)"/>
<path d="M0 0 C1.32 0 2.64 0 4 0 C4 3.3 4 6.6 4 10 C3.34 9.67 2.68 9.34 2 9 C2.33 7.68 2.66 6.36 3 5 C2.34 5 1.68 5 1 5 C0.67 3.35 0.34 1.7 0 0 Z " fill="#0179D7" transform="translate(121,99)"/>
</svg>
