<?xml version="1.0" encoding="UTF-8"?>
<svg version="1.1" xmlns="http://www.w3.org/2000/svg" width="300" height="300">
<path d="M0 0 C4.94261298 4.72814062 7.73509213 9.89629732 8.07282293 16.77575278 C8.11249062 19.09265574 8.1185108 21.40757936 8.11418152 23.724823 C8.11644708 24.61437058 8.11871263 25.50391815 8.12104684 26.42042172 C8.12737709 29.40122534 8.1265581 32.38198337 8.12573242 35.36279297 C8.12872451 37.49992939 8.13212715 39.63706527 8.13591003 41.77420044 C8.14474888 47.57997722 8.14708809 53.38573926 8.14772582 59.19152212 C8.14867519 64.03750487 8.1523538 68.88348418 8.15589792 73.7294656 C8.16404193 85.16193066 8.16648219 96.59438784 8.16577148 108.02685547 C8.16517059 119.82213273 8.1757249 131.61736427 8.19151515 143.41262996 C8.20458774 153.53844858 8.2099555 163.66425224 8.20931607 173.79007924 C8.20906102 179.83824783 8.21191647 185.88637579 8.22249413 191.93453598 C8.23217041 197.62262613 8.23225746 203.31063676 8.22497749 208.99872971 C8.2239311 211.08566911 8.2262978 213.17261345 8.23233795 215.25954437 C8.24005292 218.10988062 8.23541625 220.95994191 8.22770691 223.81027222 C8.23285047 224.63469846 8.23799404 225.4591247 8.24329346 226.30853355 C8.18992941 235.24626688 6.02808524 240.84059701 -0.21875 247.40625 C-23.63105035 268.20629926 -63.15165772 272.07976771 -93.01953125 272.89453125 C-93.8172998 272.91644531 -94.61506836 272.93835938 -95.43701172 272.9609375 C-130.56302656 273.75910485 -180.81437571 272.40485737 -208.28515625 246.78125 C-208.94 246.05550781 -209.59484375 245.32976562 -210.26953125 244.58203125 C-210.9346875 243.86402344 -211.59984375 243.14601563 -212.28515625 242.40625 C-216.23534492 236.68559389 -216.31110225 230.54991812 -216.28022766 223.83718872 C-216.28405321 222.94734342 -216.28787876 222.05749813 -216.29182023 221.14068782 C-216.30210645 218.17071678 -216.2981664 215.20094065 -216.29418945 212.23095703 C-216.29853835 210.09676943 -216.3037221 207.96258339 -216.30967712 205.82839966 C-216.32305935 200.0391207 -216.32364663 194.24990705 -216.32111382 188.46061563 C-216.32004356 183.62465861 -216.32492891 178.78871477 -216.32971925 173.95276058 C-216.34081181 162.54222747 -216.34125328 151.13172729 -216.33520508 139.72119141 C-216.329165 127.95655865 -216.34147782 116.19204549 -216.36277515 104.42743313 C-216.38039817 94.32022087 -216.38639138 84.21304664 -216.3831374 74.10581958 C-216.38132549 68.07213201 -216.38395167 62.03852975 -216.39785194 56.00485611 C-216.41043694 50.32982818 -216.40847967 44.6549865 -216.39544106 38.9799614 C-216.39307719 36.90031114 -216.39580314 34.82064776 -216.40406418 32.74101257 C-216.4145493 29.89574043 -216.40641668 27.05109121 -216.39375305 24.20584106 C-216.40112734 23.38860475 -216.40850162 22.57136843 -216.41609937 21.72936738 C-216.34284689 13.87221522 -214.60049528 6.67222685 -209.01953125 0.89453125 C-164.67149322 -39.27864708 -44.94742425 -36.51481014 0 0 Z " fill="#2687CF" transform="translate(254.01953125,26.10546875)"/>
<path d="M0 0 C0.30542725 0.61641357 0.61085449 1.23282715 0.92553711 1.86791992 C8.62027515 17.13675594 22.19335067 23.80266168 37.78979492 29.0625 C61.2601422 36.54588386 85.5298479 38.36865653 110 40 C110 59.14 110 78.28 110 98 C106.7 99.32 103.4 100.64 100 102 C92.03668861 107.14414191 87.9435376 114.16938721 85 123 C83.87467297 136.41234603 83.95294682 148.01632044 92.625 158.8125 C96.82569618 163.26492329 101.42395368 165.63871508 107 168 C108.98 168.99 108.98 168.99 111 170 C111.33 198.38 111.66 226.76 112 256 C79.16354138 256 33.34796209 253.77801291 7.734375 229.88671875 C6.75210938 228.79810547 6.75210938 228.79810547 5.75 227.6875 C5.08484375 226.96949219 4.4196875 226.25148438 3.734375 225.51171875 C-0.21703872 219.78928852 -0.28820084 213.67138291 -0.24050903 206.95802307 C-0.24221788 206.06999479 -0.24392673 205.1819665 -0.24568737 204.26702827 C-0.2489708 201.3036681 -0.23799745 198.34053643 -0.22705078 195.37719727 C-0.22648642 193.24811305 -0.22680371 191.11902845 -0.22793579 188.98994446 C-0.22850933 183.21778162 -0.21675474 177.44570199 -0.20278788 171.67355847 C-0.19028078 165.63840994 -0.18911003 159.60325947 -0.18673706 153.56809998 C-0.18052224 142.14312366 -0.16411136 130.71818564 -0.14403808 119.29322618 C-0.12167917 106.28485236 -0.11068566 93.27647671 -0.10064721 80.26808846 C-0.07974517 53.51203774 -0.04456911 26.75602102 0 0 Z " fill="#0072C6" transform="translate(38,43)"/>
<path d="M0 0 C0.86355103 -0.00100708 1.72710205 -0.00201416 2.61682129 -0.00305176 C16.71061348 0.00803493 30.41313476 0.76692941 44.3125 3.25 C45.16666504 3.39453613 46.02083008 3.53907227 46.90087891 3.68798828 C61.1752485 6.15021478 78.29587149 9.50056105 87.95703125 21.25 C89.82834491 24.01113139 90.24576375 25.91318732 90.3125 29.25 C85.33970182 38.81307343 75.69675881 42.91296826 65.90203857 46.1835022 C45.49054342 52.51726701 24.05989115 53.90790925 2.82080078 53.71655273 C-0.71498794 53.68727237 -4.24929439 53.69608332 -7.78515625 53.70898438 C-24.47364749 53.69388594 -40.4852392 52.35362102 -56.625 47.875 C-57.40657471 47.66149902 -58.18814941 47.44799805 -58.9934082 47.22802734 C-81.0751432 41.0166137 -81.0751432 41.0166137 -86.8984375 31.2109375 C-88.13739549 28.13194289 -87.67711422 26.40439534 -86.6875 23.25 C-81.62410284 13.89887503 -69.86505111 10.06036829 -60.24145508 7.13623047 C-50.22502391 4.29309577 -40.01662458 2.50332928 -29.6875 1.25 C-28.52166382 1.10643066 -28.52166382 1.10643066 -27.33227539 0.95996094 C-18.24536689 -0.01354294 -9.12865941 0.00739797 0 0 Z " fill="#B7D433" transform="translate(148.6875,12.75)"/>
<path d="M0 0 C4.11415533 3.91940241 6.42626666 7.94701144 7.98046875 13.38671875 C7.98046875 20.63891225 5.00722487 25.72698463 0.10546875 30.9453125 C-7.99611746 38.34694549 -17.87330568 42.180483 -28.01953125 45.88671875 C-28.97214844 46.25667969 -29.92476562 46.62664062 -30.90625 47.0078125 C-40.6353645 50.57469185 -50.8313777 52.20354979 -61.01953125 53.88671875 C-62.3645874 54.1175415 -62.3645874 54.1175415 -63.73681641 54.35302734 C-106.75034666 61.52582624 -164.57087823 60.59571924 -202.01953125 35.88671875 C-208.7013272 30.84443754 -213.32959579 26.06918748 -215.95703125 18.01171875 C-216.09354115 11.18622378 -213.48103898 5.93190044 -209.01953125 0.88671875 C-164.73206552 -39.23158946 -44.85366328 -36.59741375 0 0 Z M-189.56640625 6.17578125 C-191.94727879 8.97906666 -193.01953125 10.99679659 -193.01953125 14.69921875 C-190.94038875 21.32648547 -186.7313711 24.78439383 -180.70703125 28.01171875 C-173.10006356 31.55910767 -165.11696506 33.7691935 -157.01953125 35.88671875 C-155.75302734 36.22509766 -155.75302734 36.22509766 -154.4609375 36.5703125 C-152.32103721 37.09214074 -150.18758153 37.49663025 -148.01953125 37.88671875 C-147.10606934 38.05292725 -146.19260742 38.21913574 -145.25146484 38.39038086 C-133.49356817 40.23750905 -121.75471236 40.25893755 -109.87255859 40.25732422 C-106.31818303 40.26165941 -102.76509152 40.29797525 -99.2109375 40.3359375 C-75.11938225 40.45371811 -39.47810677 40.02867559 -19.98828125 23.125 C-17.16706261 20.05759011 -14.90874961 17.20720258 -15.01953125 12.88671875 C-17.43884035 6.05572835 -22.27656549 2.68733557 -28.39453125 -0.61328125 C-51.66669517 -11.59526393 -78.35036606 -13.34545551 -103.70703125 -13.36328125 C-104.57124695 -13.36395599 -105.43546265 -13.36463074 -106.3258667 -13.36532593 C-132.45625752 -13.333011 -169.18366914 -12.70040572 -189.56640625 6.17578125 Z " fill="#FCFDFD" transform="translate(254.01953125,26.11328125)"/>
<path d="M0 0 C6.80873545 5.3555521 10.8067526 13.37843463 12.1875 21.8125 C13.13520161 33.88253304 12.12261572 44.78145106 4.9375 54.8046875 C2.09467576 58.06632067 -1.20179331 60.46438584 -4.8125 62.8125 C-5.8025 63.4725 -6.7925 64.1325 -7.8125 64.8125 C-7.04788452 65.5238208 -7.04788452 65.5238208 -6.26782227 66.24951172 C-3.96747133 68.39258492 -1.6711973 70.53997735 0.625 72.6875 C1.42744141 73.43386719 2.22988281 74.18023437 3.05664062 74.94921875 C3.82041016 75.66464844 4.58417969 76.38007813 5.37109375 77.1171875 C6.43154907 78.1069458 6.43154907 78.1069458 7.51342773 79.11669922 C9.1875 80.8125 9.1875 80.8125 10.1875 82.8125 C-6.36690578 84.89211628 -6.36690578 84.89211628 -12.03564453 81.47070312 C-16.33144275 77.807473 -19.72159427 73.51654267 -22.8125 68.8125 C-22.8125 68.1525 -22.8125 67.4925 -22.8125 66.8125 C-23.64652344 66.73773438 -24.48054688 66.66296875 -25.33984375 66.5859375 C-36.28363974 65.30728092 -43.38766727 61.603076 -50.3046875 52.96484375 C-55.41478379 45.67037987 -56.19139422 39.00236812 -56.3125 30.25 C-56.33111084 29.36352783 -56.34972168 28.47705566 -56.36889648 27.5637207 C-56.27941033 18.20416361 -52.63624496 9.72068689 -46.02734375 2.99609375 C-33.05945893 -8.97233945 -14.7775704 -9.3127796 0 0 Z " fill="#FBFDFE" transform="translate(177.8125,146.1875)"/>
<path d="M0 0 C0.70966919 -0.00117828 1.41933838 -0.00235657 2.1505127 -0.00357056 C15.49196595 -0.00106001 28.93448293 0.28028515 42.125 2.4375 C42.90214355 2.5624585 43.67928711 2.68741699 44.47998047 2.81616211 C50.18885499 3.7957334 55.7495156 5.14111217 61.3125 6.75 C62.04138428 6.95979492 62.77026855 7.16958984 63.52124023 7.38574219 C65.26505588 7.91996375 66.9803356 8.5457248 68.6875 9.1875 C69.0175 9.8475 69.3475 10.5075 69.6875 11.1875 C60.90097513 14.8547572 52.05330729 16.73492404 42.6875 18.1875 C41.25229004 18.44454712 41.25229004 18.44454712 39.78808594 18.70678711 C27.93168068 20.60737396 16.08181681 20.52484027 4.10107422 20.50317383 C0.45900376 20.50001863 -3.18224839 20.52352643 -6.82421875 20.54882812 C-24.01138407 20.59614627 -40.27397177 19.22109253 -56.875 14.625 C-57.67873047 14.41681641 -58.48246094 14.20863281 -59.31054688 13.99414062 C-65.04768505 12.45231495 -65.04768505 12.45231495 -67.3125 10.1875 C-46.59280075 0.50513373 -22.43855811 0.02845669 0 0 Z " fill="#80BA02" transform="translate(148.3125,45.8125)"/>
<path d="M0 0 C0 4.95 0 9.9 0 15 C-6 13 -6 13 -8 12 C-10.31006744 11.8769109 -12.62418636 11.8244366 -14.9375 11.8125 C-16.80728516 11.79123047 -16.80728516 11.79123047 -18.71484375 11.76953125 C-22.14276297 11.73759502 -22.14276297 11.73759502 -25 14 C-25.58369443 17.41538144 -25.58369443 17.41538144 -25 21 C-21.95894244 24.85049327 -18.00007076 26.69474344 -13.6875 28.8125 C-1.1064179 35.31411272 -1.1064179 35.31411272 1.921875 42.05078125 C3.68026106 48.08719194 2.97939094 54.0901042 1 60 C-3.5347724 66.08955151 -10.64545311 69.57653931 -18 71 C-26.5137618 71.52935307 -35.67795404 71.88136398 -43 67 C-43.22107787 64.2114711 -43.28107535 61.65346819 -43.1875 58.875 C-43.17396484 58.12089844 -43.16042969 57.36679688 -43.14648438 56.58984375 C-43.11109985 54.72625873 -43.05729167 52.86304022 -43 51 C-42.27296875 51.433125 -41.5459375 51.86625 -40.796875 52.3125 C-33.58531737 56.30659346 -27.29660091 58.61183963 -19 57 C-15.98407135 55.21506263 -15.1673055 54.62739563 -14.25 51.1875 C-15.24571837 46.95569694 -17.01583435 45.88743429 -20.515625 43.4921875 C-23.14481038 41.9130227 -25.83184239 40.52050182 -28.5625 39.125 C-34.8071178 35.82055641 -38.80097776 31.63316718 -42.4375 25.625 C-43.72196158 19.63084598 -44.0753279 14.13741162 -40.9375 8.6875 C-31.29625045 -4.75593247 -14.55977753 -3.52964304 0 0 Z " fill="#F9FBFD" transform="translate(112,142)"/>
<path d="M0 0 C5.28 0 10.56 0 16 0 C16 19.14 16 38.28 16 58 C24.58 58 33.16 58 42 58 C42 62.29 42 66.58 42 71 C28.14 71 14.28 71 0 71 C0 47.57 0 24.14 0 0 Z " fill="#F8FBFD" transform="translate(202,141)"/>
<path d="M0 0 C4.62888003 2.91669215 6.98147674 7.09494429 8.81640625 12.14453125 C9.36945433 15.33420391 9.42299372 18.41317899 9.37890625 21.64453125 C9.41467773 22.84916016 9.41467773 22.84916016 9.45117188 24.078125 C9.43613931 30.26152053 7.68169429 34.3386354 3.81640625 39.14453125 C-0.85497234 43.48223994 -4.61178076 44.51917455 -10.8359375 44.41796875 C-14.6259495 43.9765364 -17.33721489 42.67217498 -20.18359375 40.14453125 C-25.9842237 32.65809323 -27.08500513 24.32043686 -26.18359375 15.14453125 C-24.76055297 8.71382797 -22.18025654 3.81360348 -16.59375 0.1484375 C-11.25283433 -2.07622267 -5.39186686 -2.11237718 0 0 Z " fill="#2888CF" transform="translate(164.18359375,154.85546875)"/>
<path d="M0 0 C0 13.53 0 27.06 0 41 C-5.47941993 38.80823203 -6.67935056 37.03698566 -9 32 C-9.61875 30.6696875 -9.61875 30.6696875 -10.25 29.3125 C-12.25674571 20.44937311 -11.6477328 11.92057358 -7 4 C-3 0 -3 0 0 0 Z " fill="#0876C7" transform="translate(149,156)"/>
</svg>
