<?xml version="1.0" encoding="UTF-8"?>
<svg version="1.1" xmlns="http://www.w3.org/2000/svg" width="512" height="512">
<path d="M0 0 C13.64642323 12.06901409 22.4350269 27.17416364 23.90625 45.5703125 C24.05620111 50.09875412 24.06337301 54.62486873 24.06738281 59.15551758 C24.0720193 60.51814404 24.07704506 61.88076923 24.08242798 63.24339294 C24.09547147 66.9253581 24.10198075 70.6073051 24.10643864 74.28928971 C24.10938161 76.59502479 24.11348859 78.90075503 24.11794281 81.20648766 C24.13159473 88.43650977 24.1412734 95.66652067 24.1451447 102.89655477 C24.14962399 111.21360057 24.16717555 119.53048191 24.1961453 127.84747773 C24.21782307 134.29701785 24.22785217 140.74651189 24.22918582 147.19608802 C24.23022922 151.03891485 24.23603757 154.88158662 24.25400543 158.72437477 C24.27059279 162.34175592 24.27259054 165.95886713 24.26386642 169.57627296 C24.26274017 171.51952722 24.27637357 173.46277297 24.2906189 175.40597534 C24.24086605 185.96145066 22.95772953 195.30928031 16.01171875 203.55859375 C10.2385974 209.07465589 3.63056357 212.68271947 -4.38499451 212.71507263 C-6.03117012 212.72542038 -6.03117012 212.72542038 -7.71060181 212.73597717 C-8.91526093 212.73859055 -10.11992004 212.74120392 -11.36108398 212.74389648 C-13.30863335 212.75416208 -15.25618271 212.76442977 -17.20373166 212.77477562 C-19.29915741 212.78500835 -21.39458076 212.79285955 -23.49001884 212.80010796 C-27.86643787 212.8155842 -32.24278508 212.83953778 -36.61915588 212.86500549 C-49.06498663 212.9361304 -61.5108596 212.99578304 -73.95678711 213.04711914 C-80.8293559 213.0755419 -87.70185426 213.11099338 -94.57434899 213.15377289 C-98.91386708 213.18036705 -103.25330554 213.19838194 -107.59288871 213.20981014 C-110.94926868 213.22118678 -114.30553894 213.24528085 -117.66186523 213.26733398 C-119.44152679 213.2682177 -119.44152679 213.2682177 -121.25714111 213.26911926 C-135.73558353 213.39443327 -148.37296792 215.36695977 -159.27734375 225.56640625 C-169.39260191 236.72582009 -170.54309109 249.86836519 -170.60546875 264.30078125 C-170.62235245 265.7872309 -170.64050753 267.27366659 -170.65986633 268.76008606 C-170.70697266 272.63477209 -170.73703464 276.50940153 -170.76330566 280.38427734 C-170.79331219 284.35330376 -170.83977236 288.32213582 -170.88476562 292.29101562 C-170.97034955 300.05068395 -171.03789201 307.81036713 -171.09375 315.5703125 C-179.71802775 315.64030771 -188.3421837 315.69337201 -196.96667671 315.72574902 C-200.97284211 315.74130065 -204.97881095 315.76234269 -208.98486328 315.79663086 C-212.8622921 315.82960448 -216.73953375 315.84724411 -220.61709213 315.85494423 C-222.08482681 315.86042049 -223.55255309 315.87111056 -225.02020645 315.88750267 C-237.55253829 316.02170734 -249.92845519 314.99418574 -261.21875 309.0703125 C-261.88269775 308.72774414 -262.54664551 308.38517578 -263.23071289 308.03222656 C-282.24287898 297.7114017 -293.61962563 278.66799573 -299.84375 258.5078125 C-309.94931248 222.94533448 -308.95604484 179.26629047 -291.19921875 146.234375 C-281.8546112 129.5996787 -268.50015498 117.36572539 -250.09375 111.5703125 C-241.17936213 109.39015345 -232.3651551 109.29683422 -223.24926758 109.34326172 C-221.68116259 109.34382699 -220.11305707 109.34350702 -218.54495239 109.34237671 C-214.32048461 109.3418067 -210.09613215 109.35350354 -205.87169099 109.36752462 C-201.44479611 109.38009111 -197.01789812 109.38120712 -192.59098816 109.38357544 C-184.22253613 109.38977291 -175.85413683 109.40616009 -167.48570794 109.42627442 C-157.95238893 109.44868759 -148.41906731 109.45964043 -138.88572848 109.46966529 C-119.28837298 109.49052799 -99.69106482 109.52567001 -80.09375 109.5703125 C-80.09375 106.6003125 -80.09375 103.6303125 -80.09375 100.5703125 C-113.75375 100.5703125 -147.41375 100.5703125 -182.09375 100.5703125 C-182.2175 86.184375 -182.2175 86.184375 -182.34375 71.5078125 C-182.38016602 68.51195068 -182.41658203 65.51608887 -182.45410156 62.42944336 C-182.61346472 40.12885296 -180.54989615 21.83630947 -164.55981445 4.82104492 C-125.58888359 -34.45163023 -41.79949824 -34.58928233 0 0 Z M-133.90625 34.0078125 C-138.75848259 39.6918564 -140.4837604 43.41693569 -140.36328125 50.94140625 C-139.83317126 56.11189937 -137.97067225 59.83689738 -134.15234375 63.36328125 C-128.28558729 67.91190827 -123.50258899 69.41222602 -116.09375 68.5703125 C-109.86826655 66.69815624 -105.67108865 62.90699803 -102.09375 57.5703125 C-99.43759093 52.37347954 -99.62777431 47.1255888 -101.09375 41.5703125 C-103.86146025 36.30535229 -107.70880536 32.15922819 -113.09375 29.5703125 C-121.1606874 27.61469131 -127.59158665 28.53510426 -133.90625 34.0078125 Z " fill="#000000" transform="translate(325.09375,43.4296875)"/>
<path d="M0 0 C8.62427775 -0.06999521 17.2484337 -0.12305951 25.87292671 -0.15543652 C29.87909211 -0.17098815 33.88506095 -0.19203019 37.89111328 -0.22631836 C41.7685421 -0.25929198 45.64578375 -0.27693161 49.52334213 -0.28463173 C50.99107681 -0.29010799 52.45880309 -0.30079806 53.92645645 -0.31719017 C66.45878829 -0.45139484 78.83470519 0.57612676 90.125 6.5 C90.78894775 6.84256836 91.45289551 7.18513672 92.13696289 7.53808594 C111.14912898 17.8589108 122.52587563 36.90231677 128.75 57.0625 C136.19787828 83.27232336 136.43511399 112.39839683 131 139 C130.86078125 139.68545898 130.7215625 140.37091797 130.578125 141.07714844 C125.99282567 162.57073906 115.2227982 183.47840035 96.5 195.8125 C82.30050631 204.31648446 68.23700245 206.4669991 51.81494141 206.34057617 C50.24639401 206.33972757 48.67784542 206.34020957 47.10929871 206.34190369 C42.8973447 206.34275599 38.68565285 206.32525589 34.47375917 206.30418181 C30.05489756 206.28528583 25.63602835 206.28365448 21.21713257 206.28010559 C12.86999806 206.27082276 4.522983 206.24626054 -3.82409918 206.21605712 C-13.33571327 206.1823952 -22.8473334 206.1659976 -32.35899234 206.15097082 C-51.90606233 206.11970715 -71.45302152 206.06702075 -91 206 C-91 208.97 -91 211.94 -91 215 C-57.34 215 -23.68 215 11 215 C11.0825 224.405 11.165 233.81 11.25 243.5 C11.28641602 246.43455078 11.32283203 249.36910156 11.36035156 252.39257812 C11.52667767 275.24205776 9.17192614 294.0524478 -7.10131836 311.3894043 C-28.59043477 332.99759231 -61.92977446 338.9272185 -91.22583008 339.24145508 C-122.99253282 339.31458766 -153.03638193 333.26904037 -176.59375 310.4921875 C-190.98714295 295.187213 -195.14156499 277.81709316 -195.16113281 257.31689453 C-195.16609772 256.06382507 -195.17106262 254.81075562 -195.17617798 253.51971436 C-195.18822739 250.10225469 -195.19572857 246.68485573 -195.20018864 243.26738214 C-195.20313278 241.12715428 -195.20723993 238.98693161 -195.21169281 236.84670639 C-195.22534111 230.1351382 -195.23502196 223.42358206 -195.2388947 216.71200097 C-195.24337535 208.99205503 -195.26093474 201.27228616 -195.2898953 193.55239403 C-195.31156992 187.56486122 -195.32160198 181.57737803 -195.32293582 175.58980644 C-195.3239793 172.02255087 -195.32978946 168.45546235 -195.34775543 164.88824844 C-195.36742472 160.90607332 -195.36292416 156.92411689 -195.35644531 152.94189453 C-195.3656601 151.77481964 -195.37487488 150.60774475 -195.3843689 149.40530396 C-195.32992546 138.69067791 -193.24226142 129.19849074 -186 121 C-179.79083649 115.80344201 -173.44061178 112.75127048 -165.24082947 112.7484436 C-163.55277191 112.74036934 -163.55277191 112.74036934 -161.83061218 112.73213196 C-160.00008049 112.73831795 -160.00008049 112.73831795 -158.13256836 112.74462891 C-156.14193777 112.73907108 -154.15130719 112.73350892 -152.16067708 112.72778487 C-150.02760975 112.72345359 -147.89458906 112.72391247 -145.76151848 112.72560501 C-141.30054679 112.72844966 -136.83973203 112.71404108 -132.37879944 112.69662476 C-119.6956723 112.64971449 -107.01255578 112.62567961 -94.3293457 112.61914062 C-87.31900493 112.6153739 -80.30884196 112.59721376 -73.29857737 112.56404626 C-68.87640228 112.5439733 -64.45469024 112.54139241 -60.0324887 112.55232644 C-56.61262363 112.55557732 -53.19300723 112.53277484 -49.77319336 112.51416016 C-48.56700851 112.52233261 -47.36082367 112.53050507 -46.11808777 112.53892517 C-33.22867809 112.41485556 -21.48353932 109.17110527 -12.03515625 100.1171875 C-0.97621415 88.19316959 -0.69314515 74.74276946 -0.5859375 59.27734375 C-0.56720173 57.56383863 -0.54762657 55.8503425 -0.5272522 54.13685608 C-0.47617926 49.65387298 -0.4364215 45.17086006 -0.39910889 40.68774414 C-0.3589125 36.10230277 -0.30789191 31.51698282 -0.2578125 26.93164062 C-0.16134778 17.95451269 -0.07684985 8.9773158 0 0 Z M-66.375 254.375 C-69.87856288 258.88094463 -71.25257617 262.71576877 -70.875 268.4375 C-70.0073288 274.37157312 -67.62417988 278.76205722 -63.125 282.8125 C-57.55010022 286.71492985 -53.17884841 287.48004513 -46.52734375 286.58984375 C-40.39429431 285.15848291 -36.35293247 282.11896175 -33 276.8125 C-30.22333346 271.14621777 -29.89760993 265.85494169 -31.62890625 259.80078125 C-33.97144431 254.28583739 -37.91408126 251.01813248 -43 248 C-52.03268468 244.98910511 -60.02229646 247.4377862 -66.375 254.375 Z " fill="#000000" transform="translate(358,153)"/>
</svg>
