<?xml version="1.0" encoding="UTF-8"?>
<svg version="1.1" xmlns="http://www.w3.org/2000/svg" width="238" height="212">
<path d="M0 0 C9.65562148 5.5680014 18.32298152 12.30576854 26.4140625 19.96875 C29.61705514 18.55231548 31.77490452 16.82747218 34.2890625 14.40625 C46.8713304 3.04295387 61.23673744 -5.31396504 78.54296875 -4.4453125 C85.20538152 -3.73268308 89.03281182 -1.70241162 93.6640625 3.03125 C102.48622478 14.16111685 102.62665071 30.03660757 101.13134766 43.51757812 C99.3702813 56.10009359 99.3702813 56.10009359 97.4140625 61.96875 C97.96006104 62.07034424 98.50605957 62.17193848 99.06860352 62.27661133 C104.84269246 63.44227827 109.9955499 65.22465395 115.3515625 67.65625 C116.13426514 68.00856689 116.91696777 68.36088379 117.72338867 68.72387695 C129.49112722 74.16424462 140.46863175 82.07788851 146.4140625 93.96875 C147.19155462 102.48179662 147.84289277 110.15295745 142.1640625 117.09375 C141.5865625 117.7125 141.0090625 118.33125 140.4140625 118.96875 C139.9190625 119.566875 139.4240625 120.165 138.9140625 120.78125 C128.8143892 132.0928841 112.04908404 138.98201091 97.4140625 141.96875 C97.72150391 143.2371875 97.72150391 143.2371875 98.03515625 144.53125 C98.30457031 145.665625 98.57398438 146.8 98.8515625 147.96875 C99.11839844 149.0825 99.38523438 150.19625 99.66015625 151.34375 C102.77415455 166.31675736 103.91969261 184.44118485 95.6640625 197.90625 C92.15629688 202.7261474 88.14112988 206.05972754 82.4140625 207.96875 C62.52338096 209.36018529 48.98245651 201.71168445 34.07421875 188.96875 C32.17618684 187.31422658 30.28890264 185.649465 28.4140625 183.96875 C24.71645163 185.55344037 22.10253807 187.87893549 19.1015625 190.53125 C6.15519327 201.61681988 -7.19348338 209.13047845 -24.54296875 208.4375 C-31.21870258 207.88388006 -35.00841054 204.86632465 -39.34765625 199.98828125 C-48.30350414 188.08329216 -47.91015679 172.04232425 -45.94140625 157.91796875 C-44.22178146 146.87628187 -44.22178146 146.87628187 -42.5859375 141.96875 C-43.25753906 141.85660156 -43.92914063 141.74445313 -44.62109375 141.62890625 C-61.83872615 137.79520417 -78.18253282 129.01686224 -89.0859375 115.046875 C-92.79733138 109.01585995 -92.37439774 101.78614361 -91.5859375 94.96875 C-88.37837856 84.12822996 -78.8643222 77.46246653 -69.5859375 71.96875 C-51.09040388 61.96875 -51.09040388 61.96875 -42.5859375 61.96875 C-42.79089844 61.13472656 -42.99585938 60.30070312 -43.20703125 59.44140625 C-47.37058688 42.05009493 -49.8085165 22.62084511 -41.07421875 6.234375 C-31.88322668 -7.75716149 -13.52381141 -6.59091499 0 0 Z M-28.5859375 8.34375 C-34.15375435 15.65150961 -35.20092841 23.38782772 -34.9609375 32.34375 C-34.94732178 33.34946045 -34.93370605 34.3551709 -34.91967773 35.39135742 C-34.85117003 46.99938296 -34.85117003 46.99938296 -31.5859375 57.96875 C-28.90042734 57.81045773 -26.22921429 57.59853555 -23.55078125 57.34375 C-21.43601652 57.14373284 -19.31981166 56.95219542 -17.19970703 56.8203125 C-6.17829353 56.34144737 -6.17829353 56.34144737 3.34765625 51.5234375 C5.60471853 48.44160202 7.4879299 45.26576823 9.4140625 41.96875 C11.18405117 39.64478042 13.06981746 37.43106742 14.9765625 35.21875 C15.82347656 34.21328125 16.67039063 33.2078125 17.54296875 32.171875 C18.16042969 31.44484375 18.77789062 30.7178125 19.4140625 29.96875 C11.00296638 19.3115969 -0.68783085 11.26811888 -13.5859375 6.96875 C-18.80477532 6.51526124 -23.76348596 6.13345971 -28.5859375 8.34375 Z M42.2890625 22.65625 C41.70793701 23.13199463 41.12681152 23.60773926 40.52807617 24.09790039 C39.09515571 25.31943111 37.74653384 26.63836717 36.4140625 27.96875 C36.4140625 32.17736371 38.80105807 34.04797513 41.4765625 37.03125 C42.43049229 38.10128743 43.37960649 39.17563456 44.32421875 40.25390625 C44.833479 40.8252832 45.34273926 41.39666016 45.86743164 41.98535156 C47.4140625 43.96875 47.4140625 43.96875 48.78686523 46.52246094 C51.26228838 50.94627907 53.00707085 53.45369676 57.87475586 55.2355957 C61.9941994 56.17045956 66.15698951 56.63961782 70.3515625 57.09375 C71.81368757 57.28500458 73.27529204 57.48028443 74.73632812 57.6796875 C78.29076256 58.1559725 81.84917019 58.57728339 85.4140625 58.96875 C90.40675637 51.47970919 89.77846608 41.05400361 89.7890625 32.34375 C89.82580078 30.74273437 89.82580078 30.74273437 89.86328125 29.109375 C89.89310962 21.01594473 88.48454558 14.78359262 83.3515625 8.40625 C69.07849501 1.4215574 52.82143023 13.92967671 42.2890625 22.65625 Z M26.4140625 37.96875 C24.45752091 40.05455259 22.61413639 42.14810273 20.7890625 44.34375 C20.2734375 44.94703125 19.7578125 45.5503125 19.2265625 46.171875 C16.37945364 49.16373871 16.37945364 49.16373871 15.4140625 52.96875 C23.3340625 52.96875 31.2540625 52.96875 39.4140625 52.96875 C37.5365804 49.21378579 35.55264848 46.45701461 32.9140625 43.21875 C32.12 42.23390625 31.3259375 41.2490625 30.5078125 40.234375 C29.816875 39.48671875 29.1259375 38.7390625 28.4140625 37.96875 C27.7540625 37.96875 27.0940625 37.96875 26.4140625 37.96875 Z M13.40771484 63.85742188 C9.29110051 63.87145499 6.53640056 63.91658422 3.44995117 66.81005859 C1.62828762 69.36273138 0.13365361 71.94875322 -1.3359375 74.71875 C-2.14925537 76.14888428 -2.14925537 76.14888428 -2.97900391 77.60791016 C-4.05345836 79.50871951 -5.11139738 81.4189736 -6.15136719 83.33886719 C-7.38401493 85.59858154 -8.6656226 87.80740023 -10 90.0078125 C-14.41827155 97.49301298 -14.41827155 97.49301298 -13.5859375 105.96875 C-12.273986 109.0977507 -10.71452276 112.0567065 -9.0859375 115.03125 C-8.63814941 115.8567334 -8.19036133 116.6822168 -7.72900391 117.53271484 C-6.36440715 120.02092741 -4.97756693 122.49557704 -3.5859375 124.96875 C-3.18213867 125.70367676 -2.77833984 126.43860352 -2.36230469 127.19580078 C-1.26017364 129.18232931 -0.12045552 131.14029284 1.0390625 133.09375 C1.69132812 134.21007812 2.34359375 135.32640625 3.015625 136.4765625 C5.65261385 139.21662583 7.15645041 139.73682848 10.91162109 139.94384766 C11.73742676 139.95206543 12.56323242 139.9602832 13.4140625 139.96875 C14.44998535 139.99372559 15.4859082 140.01870117 16.55322266 140.04443359 C20.17453249 140.1037827 23.79231616 140.10511531 27.4140625 140.09375 C28.64640625 140.09761719 29.87875 140.10148437 31.1484375 140.10546875 C34.57238882 140.10179498 37.99101798 140.04205716 41.4140625 139.96875 C42.2275415 139.98591064 43.04102051 140.00307129 43.87915039 140.02075195 C46.77794823 139.94246151 48.83392079 139.55667757 50.90576172 137.45703125 C52.39415026 135.34114863 53.62966586 133.18625266 54.8515625 130.90625 C55.30893799 130.10219727 55.76631348 129.29814453 56.23754883 128.46972656 C57.18215791 126.80313474 58.11529061 125.12998845 59.03710938 123.45068359 C60.35267571 121.07939859 61.72110783 118.75036632 63.1171875 116.42578125 C63.94628105 115.02400991 64.77445124 113.6216919 65.6015625 112.21875 C65.98820068 111.57671631 66.37483887 110.93468262 66.77319336 110.27319336 C69.05570967 106.28234227 70.2088407 103.53304766 69.4140625 98.96875 C68.00546908 95.660788 66.27290469 92.57990708 64.4765625 89.46875 C63.97729248 88.59178467 63.47802246 87.71481934 62.96362305 86.8112793 C61.94461498 85.03454313 60.91836344 83.26194089 59.88476562 81.49365234 C58.55069813 79.20332598 57.25368959 76.89580023 55.9609375 74.58203125 C55.21921733 73.31330352 54.47462683 72.04624748 53.7265625 70.78125 C53.08332031 69.67394531 52.44007813 68.56664063 51.77734375 67.42578125 C49.14233162 64.68623971 47.56597255 64.20555494 43.81176758 63.99584961 C43.0205249 63.98690674 42.22928223 63.97796387 41.4140625 63.96875 C40.48682373 63.94369385 39.55958496 63.9186377 38.60424805 63.89282227 C35.43552049 63.83379024 32.27078198 63.83235676 29.1015625 63.84375 C28.03744141 63.83988281 26.97332031 63.83601563 25.87695312 63.83203125 C23.75456975 63.8346211 21.63208603 63.85976395 19.51025391 63.90820312 C17.47639264 63.94797584 15.44057161 63.93270064 13.40771484 63.85742188 Z M64.4140625 66.96875 C66.1137131 71.70349097 68.55065277 75.93042111 71.0390625 80.28125 C71.45929688 81.02181641 71.87953125 81.76238281 72.3125 82.52539062 C73.34354745 84.34144011 74.37842296 86.15531533 75.4140625 87.96875 C78.55535004 86.39810623 78.99215937 83.30113922 80.1015625 80.15625 C80.45831055 79.21168945 80.45831055 79.21168945 80.82226562 78.24804688 C82.04548524 74.82948884 82.84410626 72.40952195 81.4140625 68.96875 C72.98609767 67.24447915 72.98609767 67.24447915 64.4140625 66.96875 Z M-28.5859375 70.96875 C-27.63616767 73.61795076 -26.67665842 76.26286973 -25.7109375 78.90625 C-25.30681641 80.03836914 -25.30681641 80.03836914 -24.89453125 81.19335938 C-23.66974336 85.31972092 -23.66974336 85.31972092 -20.5859375 87.96875 C-19.12373471 85.40839079 -17.66608597 82.8456144 -16.2109375 80.28125 C-15.7984375 79.56001953 -15.3859375 78.83878906 -14.9609375 78.09570312 C-12.90161478 74.45867349 -11.00304698 70.91641212 -9.5859375 66.96875 C-15.47030264 66.65067621 -24.23797154 66.62078404 -28.5859375 70.96875 Z M93.4140625 72.96875 C93.18219238 73.61424805 92.95032227 74.25974609 92.71142578 74.92480469 C91.65651605 77.85704252 90.59783085 80.78790335 89.5390625 83.71875 C89.17425781 84.73453125 88.80945313 85.7503125 88.43359375 86.796875 C88.07910156 87.7765625 87.72460938 88.75625 87.359375 89.765625 C87.03469238 90.66635742 86.71000977 91.56708984 86.37548828 92.49511719 C85.4140625 94.96875 85.4140625 94.96875 84.31079102 97.11669922 C82.97696675 99.87150208 83.13348278 101.93848906 83.4140625 104.96875 C84.52096138 108.26382379 84.52096138 108.26382379 86.1015625 111.59375 C86.65041524 112.8174055 87.19857893 114.04137027 87.74609375 115.265625 C88.02404785 115.87857422 88.30200195 116.49152344 88.58837891 117.12304688 C89.87833725 120.00657292 91.08203271 122.92474387 92.2890625 125.84375 C92.69898438 126.83117187 93.10890625 127.81859375 93.53125 128.8359375 C93.96824219 129.89167969 93.96824219 129.89167969 94.4140625 130.96875 C110.11889742 127.76368165 124.55642064 120.93933139 134.4140625 107.96875 C136.02612895 104.7446171 135.86093597 101.46487773 135.4140625 97.96875 C129.28212984 85.17167315 113.88686178 78.45543253 101.1640625 73.96875 C97.41674649 72.7969749 97.41674649 72.7969749 93.4140625 72.96875 Z M-75.59765625 90.7578125 C-79.36412006 94.94606106 -81.20296109 98.21220694 -80.921875 103.99609375 C-79.74817583 110.88816446 -72.9284904 116.04531271 -67.5859375 119.96875 C-54.77492139 127.84330602 -54.77492139 127.84330602 -40.60302734 130.83666992 C-38.36088624 130.10635328 -38.36088624 130.10635328 -37.21386719 127.65551758 C-36.81586914 126.65157959 -36.41787109 125.6476416 -36.0078125 124.61328125 C-35.56953125 123.51564453 -35.13125 122.41800781 -34.6796875 121.28710938 C-34.23625 120.13017578 -33.7928125 118.97324219 -33.3359375 117.78125 C-32.87703125 116.64365234 -32.418125 115.50605469 -31.9453125 114.33398438 C-29.11798289 107.12681828 -27.13842262 101.67027471 -30.265625 94.21875 C-30.61753906 93.3628125 -30.96945313 92.506875 -31.33203125 91.625 C-31.70457031 90.7484375 -32.07710937 89.871875 -32.4609375 88.96875 C-33.18898877 87.21936885 -33.91558878 85.4693829 -34.640625 83.71875 C-34.98061523 82.90148437 -35.32060547 82.08421875 -35.67089844 81.2421875 C-36.76597234 78.52144892 -37.71126266 75.76770949 -38.5859375 72.96875 C-51.72588821 72.96875 -66.33572413 82.13409755 -75.59765625 90.7578125 Z M-21.5859375 115.96875 C-22.40658819 117.84019695 -23.2170959 119.71609336 -24.0234375 121.59375 C-24.47589844 122.63789062 -24.92835937 123.68203125 -25.39453125 124.7578125 C-26.54395455 127.85560251 -27.15904973 130.70085054 -27.5859375 133.96875 C-21.75845131 136.39686925 -15.8101884 136.58602907 -9.5859375 136.96875 C-11.2855881 132.23400903 -13.72252777 128.00707889 -16.2109375 123.65625 C-16.63117188 122.91568359 -17.05140625 122.17511719 -17.484375 121.41210938 C-18.51542245 119.59605989 -19.55029796 117.78218467 -20.5859375 115.96875 C-20.9159375 115.96875 -21.2459375 115.96875 -21.5859375 115.96875 Z M75.4140625 115.96875 C73.42095465 119.00714566 71.66357069 122.19479194 69.8515625 125.34375 C69.33142578 126.23320312 68.81128906 127.12265625 68.27539062 128.0390625 C67.78361328 128.88984375 67.29183594 129.740625 66.78515625 130.6171875 C66.33068115 131.40270996 65.87620605 132.18823242 65.40795898 132.99755859 C64.26398945 134.89845875 64.26398945 134.89845875 64.4140625 136.96875 C73.61244486 136.49144916 73.61244486 136.49144916 82.4140625 133.96875 C81.25212098 127.50162812 79.2891877 121.87252651 76.4140625 115.96875 C76.0840625 115.96875 75.7540625 115.96875 75.4140625 115.96875 Z M-31.5859375 144.96875 C-34.17770888 153.73140562 -34.93377667 162.12377975 -35.0234375 171.21875 C-35.04535156 172.22357422 -35.06726562 173.22839844 -35.08984375 174.26367188 C-35.06886913 182.23927219 -33.4856757 189.16284361 -28.5859375 195.59375 C-23.03418637 198.1383026 -17.52919322 198.27298718 -11.69482422 196.34326172 C-0.55501452 191.87566147 12.65430895 184.12023955 19.4140625 173.96875 C18.62902344 173.07414062 17.84398437 172.17953125 17.03515625 171.2578125 C15.97370728 170.03667651 14.91252379 168.81530972 13.8515625 167.59375 C13.33787109 167.00980469 12.82417969 166.42585938 12.29492188 165.82421875 C11.77607422 165.22480469 11.25722656 164.62539062 10.72265625 164.0078125 C10.17295166 163.37633301 9.62324707 162.74485352 9.05688477 162.09423828 C7.4140625 159.96875 7.4140625 159.96875 5.98803711 157.37060547 C3.5439231 153.05422866 1.82275405 150.50308484 -2.91870117 148.70458984 C-6.91317266 147.86666691 -10.84775526 147.30086237 -14.8984375 146.84375 C-16.29547602 146.65244149 -17.69197636 146.4571588 -19.08789062 146.2578125 C-25.31422034 145.32465358 -25.31422034 145.32465358 -31.5859375 144.96875 Z M57.86376953 148.73925781 C50.32917277 151.42462436 46.95621172 157.27726524 43.43994141 164.10009766 C42.01078173 166.7033314 40.17354915 168.79538289 38.1640625 170.96875 C37.35195312 171.8659375 37.35195312 171.8659375 36.5234375 172.78125 C36.15734375 173.173125 35.79125 173.565 35.4140625 173.96875 C39.03056893 178.64609831 42.80592137 182.09482083 47.6015625 185.53125 C48.25995117 186.00868652 48.91833984 186.48612305 49.59667969 186.97802734 C59.04559194 193.70386362 67.59458871 198.12021736 79.4140625 196.96875 C84.68564263 194.76427104 86.43917259 191.70515276 88.58276367 186.68188477 C90.14797386 181.57346163 89.94689083 176.45466024 89.8515625 171.15625 C89.85865234 170.05732422 89.86574219 168.95839844 89.87304688 167.82617188 C89.81551964 160.31665576 89.03821055 153.05816371 86.4140625 145.96875 C79.63824785 142.58084268 65.25221474 146.80440495 57.86376953 148.73925781 Z M15.4140625 150.96875 C17.31461447 154.76985395 19.33318408 157.47169589 22.0390625 160.71875 C22.85632813 161.70359375 23.67359375 162.6884375 24.515625 163.703125 C25.14210938 164.45078125 25.76859375 165.1984375 26.4140625 165.96875 C30.29776452 164.67418266 31.48497176 162.76348476 34.0390625 159.59375 C34.83570312 158.61664063 35.63234375 157.63953125 36.453125 156.6328125 C38.55214946 154.06732408 38.55214946 154.06732408 39.4140625 150.96875 C31.4940625 150.96875 23.5740625 150.96875 15.4140625 150.96875 Z " fill="#63D8F7" transform="translate(91.5859375,4.03125)"/>
<path d="M0 0 C4.89996652 4.15236133 8.10775472 8.53122173 9 15 C9.19795813 23.0371 7.01747658 28.65050057 1.58203125 34.53515625 C-2.57656735 38.35928311 -6.79783077 39.95868169 -12.421875 40.03125 C-20.10271865 39.56574432 -25.07865057 37.29969999 -30.3125 31.6875 C-34.19750467 26.78449946 -35.24023651 22.19029059 -34.875 16 C-33.87769464 8.52020979 -30.63639022 3.8880773 -24.7890625 -0.77734375 C-16.83573725 -6.21269485 -7.91117037 -4.52610228 0 0 Z " fill="#62D8F8" transform="translate(132,88)"/>
<path d="M0 0 C0.66 0.33 1.32 0.66 2 1 C-0.31 2.65 -2.62 4.3 -5 6 C-3.16666667 9.16666667 -3.16666667 9.16666667 0 11 C0.33 11.33 0.66 11.66 1 12 C1 11.01 1 10.02 1 9 C1.66 9 2.32 9 3 9 C3.33 9.99 3.66 10.98 4 12 C2.37554381 12.98006859 0.75041739 13.95902636 -0.875 14.9375 C-1.77992188 15.48277344 -2.68484375 16.02804688 -3.6171875 16.58984375 C-5.05201636 17.43898017 -6.50875448 18.25437724 -8 19 C-8.04254356 17.00045254 -8.04080783 14.99958364 -8 13 C-7.67 12.67 -7.34 12.34 -7 12 C-7 11.01 -7 10.02 -7 9 C-8.98 9.66 -10.96 10.32 -13 11 C-13.33 12.65 -13.66 14.3 -14 16 C-14.99 15.67 -15.98 15.34 -17 15 C-14.50596269 7.69603358 -8.2365811 4.4467955 -1.80859375 0.734375 C-1.21175781 0.49203125 -0.61492187 0.2496875 0 0 Z M-18 16 C-17.34 16 -16.68 16 -16 16 C-16.33 16.66 -16.66 17.32 -17 18 C-17.33 17.34 -17.66 16.68 -18 16 Z " fill="#6CD3F1" transform="translate(147,4)"/>
<path d="M0 0 C1.37562854 1.28965176 2.70766393 2.62689293 4 4 C4 4.66 4 5.32 4 6 C18.52 6 33.04 6 48 6 C47.67 6.66 47.34 7.32 47 8 C41.28917253 8.07443429 35.5786306 8.12873634 29.86743164 8.16479492 C27.92662636 8.17983491 25.9858548 8.20027214 24.04516602 8.22631836 C21.24747368 8.26291295 18.45023267 8.27977448 15.65234375 8.29296875 C14.7916478 8.30845261 13.93095184 8.32393646 13.04417419 8.33988953 C7.59417233 8.34139495 3.86293974 7.48741519 -1 5 C-0.67 3.35 -0.34 1.7 0 0 Z " fill="#6ECEE9" transform="translate(93,137)"/>
<path d="M0 0 C0.66 0.99 1.32 1.98 2 3 C1.01 3.33 0.02 3.66 -1 4 C-1.33 6.64 -1.66 9.28 -2 12 C-2.66 12 -3.32 12 -4 12 C-3.87625 12.7425 -3.7525 13.485 -3.625 14.25 C-3.74875 15.1575 -3.8725 16.065 -4 17 C-5.98600337 18.3540932 -7.98817543 19.68457624 -10 21 C-11.60999927 23.25399898 -12.75503455 25.5100691 -14 28 C-14.99 28 -15.98 28 -17 28 C-16.03900391 26.47632813 -16.03900391 26.47632813 -15.05859375 24.921875 C-9.88616885 16.69729856 -4.82451487 8.43491342 0 0 Z " fill="#71D3EC" transform="translate(158,113)"/>
<path d="M0 0 C0.99 0.33 1.98 0.66 3 1 C2.01 1.495 2.01 1.495 1 2 C1 2.66 1 3.32 1 4 C-0.65 4.33 -2.3 4.66 -4 5 C-4 6.32 -4 7.64 -4 9 C-4.66 9.66 -5.32 10.32 -6 11 C-7.32 11 -8.64 11 -10 11 C-10.33 11.99 -10.66 12.98 -11 14 C-13.31 13.67 -15.62 13.34 -18 13 C-15.38058783 11.25372522 -13.96175123 10.61277612 -11 10 C-11 9.34 -11 8.68 -11 8 C-5.44419391 2.82299887 -5.44419391 2.82299887 -1 2 C-0.67 1.34 -0.34 0.68 0 0 Z " fill="#5ADBFB" transform="translate(86,58)"/>
<path d="M0 0 C0.99 0.66 1.98 1.32 3 2 C4.65549531 2.38499891 6.3222433 2.72793135 8 3 C7.67 3.66 7.34 4.32 7 5 C7.99 6.485 7.99 6.485 9 8 C8.25234375 7.79503906 7.5046875 7.59007813 6.734375 7.37890625 C5.25710937 6.97478516 5.25710937 6.97478516 3.75 6.5625 C2.28820312 6.16224609 2.28820312 6.16224609 0.796875 5.75390625 C-1.46372653 5.14455416 -3.72622009 4.55761745 -6 4 C-6.33 5.98 -6.66 7.96 -7 10 C-7.33 10 -7.66 10 -8 10 C-7.67 7.69 -7.34 5.38 -7 3 C-6.21625 2.87625 -5.4325 2.7525 -4.625 2.625 C-1.85942178 2.20882007 -1.85942178 2.20882007 0 0 Z " fill="#65D3F2" transform="translate(191,73)"/>
<path d="M0 0 C1.9375 0.671875 1.9375 0.671875 4 2 C5.59158894 7.07318974 5.64994222 11.67604363 3.3125 16.4375 C1.26780376 18.70324449 -0.76330702 20.9230708 -3 23 C-3.66 22.67 -4.32 22.34 -5 22 C-4.57847656 21.51789063 -4.15695313 21.03578125 -3.72265625 20.5390625 C-2.90087891 19.59160156 -2.90087891 19.59160156 -2.0625 18.625 C-1.51722656 17.99851562 -0.97195312 17.37203125 -0.41015625 16.7265625 C2.54845548 13.10410715 2.36994439 9.49955615 2 5 C1.11785113 2.11785113 1.11785113 2.11785113 0 0 Z " fill="#70CBE4" transform="translate(224,97)"/>
<path d="M0 0 C4.54109672 4.26587874 8.24735246 9.03612328 12 14 C11.67 14.66 11.34 15.32 11 16 C1.56485356 8.49476987 1.56485356 8.49476987 0.25 2.6875 C0.1675 1.800625 0.085 0.91375 0 0 Z " fill="#6BD5EC" transform="translate(133,41)"/>
<path d="M0 0 C0.66 0 1.32 0 2 0 C2.33 1.65 2.66 3.3 3 5 C4.65 4.34 6.3 3.68 8 3 C7.37240135 5.92879371 6.41377341 8.36095629 5 11 C5.66 11.33 6.32 11.66 7 12 C6.67 13.32 6.34 14.64 6 16 C4.9955866 13.7101766 3.99632388 11.4183401 3 9.125 C2.71382812 8.47402344 2.42765625 7.82304688 2.1328125 7.15234375 C0 2.2265625 0 2.2265625 0 0 Z " fill="#6DD4EE" transform="translate(57,89)"/>
<path d="M0 0 C3.82312553 4.08678935 5.95219361 8.52594606 7 14 C6.57421875 16.27734375 6.57421875 16.27734375 6 18 C5.566875 16.865625 5.13375 15.73125 4.6875 14.5625 C3.8521875 12.7990625 3.8521875 12.7990625 3 11 C2.01 10.67 1.02 10.34 0 10 C0.66 8.02 1.32 6.04 2 4 C1.34 4 0.68 4 0 4 C0 2.68 0 1.36 0 0 Z " fill="#65CFEA" transform="translate(185,8)"/>
<path d="M0 0 C2 3 2 3 2 5 C2.66 5 3.32 5 4 5 C4 5.99 4 6.98 4 8 C5.65 7.67 7.3 7.34 9 7 C8.34099246 10.07536854 7.46132217 12.07735566 6 15 C3.69 10.38 1.38 5.76 -1 1 C-0.67 0.67 -0.34 0.34 0 0 Z " fill="#6ED5F1" transform="translate(153,86)"/>
<path d="M0 0 C1.89611434 0.14213297 3.79188394 0.28886907 5.6875 0.4375 C6.74324219 0.51871094 7.79898438 0.59992187 8.88671875 0.68359375 C11.65086297 0.96451681 14.28945741 1.40156852 17 2 C17 2.33 17 2.66 17 3 C14.03 3 11.06 3 8 3 C7.67 3.99 7.34 4.98 7 6 C5.68 6 4.36 6 3 6 C3.66 4.35 4.32 2.7 5 1 C3.35 1 1.7 1 0 1 C0 0.67 0 0.34 0 0 Z " fill="#69D0EE" transform="translate(159,60)"/>
<path d="M0 0 C0.69867188 0.08378906 1.39734375 0.16757813 2.1171875 0.25390625 C3.02726563 0.35574219 3.93734375 0.45757812 4.875 0.5625 C5.77992188 0.66691406 6.68484375 0.77132812 7.6171875 0.87890625 C10.01653057 1.19674852 10.01653057 1.19674852 12 0 C12 3.3 12 6.6 12 10 C9.74754119 7.31158141 8.11786042 5.35358125 7 2 C4.69 2 2.38 2 0 2 C0 1.34 0 0.68 0 0 Z " fill="#6CD5ED" transform="translate(134,67)"/>
<path d="M0 0 C8.91 1.485 8.91 1.485 18 3 C18 3.66 18 4.32 18 5 C16.00045254 5.04254356 13.99958364 5.04080783 12 5 C11.67 4.67 11.34 4.34 11 4 C9.31391034 3.92794489 7.62499341 3.91613932 5.9375 3.9375 C5.01839844 3.94652344 4.09929687 3.95554688 3.15234375 3.96484375 C2.44207031 3.97644531 1.73179688 3.98804688 1 4 C0.67 2.68 0.34 1.36 0 0 Z M10 5 C12 6 12 6 12 6 Z " fill="#6BCCEB" transform="translate(64,138)"/>
<path d="M0 0 C0.66 0.33 1.32 0.66 2 1 C-0.79129597 5.89367634 -3.25892502 9.74897716 -8 13 C-8 11.68 -8 10.36 -8 9 C-7.34 9 -6.68 9 -6 9 C-5.731875 8.360625 -5.46375 7.72125 -5.1875 7.0625 C-4 5 -4 5 -1 4 C-0.26676204 1.98491642 -0.26676204 1.98491642 0 0 Z " fill="#67CFF0" transform="translate(235,114)"/>
<path d="M0 0 C-0.680625 0.9075 -1.36125 1.815 -2.0625 2.75 C-4.26982809 5.71472615 -4.26982809 5.71472615 -3.75 8.375 C-3.5025 8.91125 -3.255 9.4475 -3 10 C-4.32 9.34 -5.64 8.68 -7 8 C-7 7.34 -7 6.68 -7 6 C-7.33 5.01 -7.66 4.02 -8 3 C-5.53387212 -0.1151089 -3.89156016 -0.31553191 0 0 Z " fill="#69D1F1" transform="translate(132,28)"/>
<path d="M0 0 C0.33 0.99 0.66 1.98 1 3 C-1.12121657 5.33333823 -3.01594365 6.9148886 -6 8 C-7.32 7.67 -8.64 7.34 -10 7 C-6.7 4.69 -3.4 2.38 0 0 Z " fill="#75D5ED" transform="translate(98,189)"/>
<path d="M0 0 C0.66 0.33 1.32 0.66 2 1 C-0.64 5.29 -3.28 9.58 -6 14 C-6.33 12.68 -6.66 11.36 -7 10 C-6.34 9.01 -5.68 8.02 -5 7 C-4.34 7 -3.68 7 -3 7 C-2.814375 6.1028125 -2.814375 6.1028125 -2.625 5.1875 C-2 3 -2 3 0 0 Z " fill="#68CDEA" transform="translate(92,74)"/>
<path d="M0 0 C0.99 0 1.98 0 3 0 C2.34 4.29 1.68 8.58 1 13 C0.67 13 0.34 13 0 13 C-0.19397476 11.02145742 -0.38001321 9.0421352 -0.5625 7.0625 C-0.66691406 5.96035156 -0.77132812 4.85820312 -0.87890625 3.72265625 C-0.91886719 2.82417969 -0.95882812 1.92570313 -1 1 C-0.67 0.67 -0.34 0.34 0 0 Z " fill="#6CCFED" transform="translate(57,149)"/>
<path d="M0 0 C2 3 2 3 3 6 C3.66 6.66 4.32 7.32 5 8 C4.34 8 3.68 8 3 8 C3.66 9.65 4.32 11.3 5 13 C3.35 13.33 1.7 13.66 0 14 C0.66 13.67 1.32 13.34 2 13 C1.67 11.783125 1.34 10.56625 1 9.3125 C0.19677787 6.12789396 -0.20641973 3.3027157 0 0 Z " fill="#6FCFEC" transform="translate(47,53)"/>
<path d="M0 0 C2.02350324 3.03525486 2.32124018 4.19426202 2.625 7.6875 C2.69976562 8.49574219 2.77453125 9.30398437 2.8515625 10.13671875 C2.90054688 10.75160156 2.94953125 11.36648437 3 12 C2.01 12.66 1.02 13.32 0 14 C-1.125 7.375 -1.125 7.375 0 4 C0 2.68 0 1.36 0 0 Z " fill="#6ACBF0" transform="translate(188,146)"/>
<path d="M0 0 C-0.33 1.65 -0.66 3.3 -1 5 C-4.37992169 4.46228519 -7.68737889 3.85696068 -11 3 C-9.73160474 2.49384702 -8.46016898 1.99530901 -7.1875 1.5 C-6.12595703 1.08234375 -6.12595703 1.08234375 -5.04296875 0.65625 C-3 0 -3 0 0 0 Z " fill="#6FD6F1" transform="translate(197,132)"/>
<path d="M0 0 C0.66 0 1.32 0 2 0 C2.6987693 1.76641683 3.38366583 3.53832664 4.0625 5.3125 C4.44535156 6.29863281 4.82820312 7.28476563 5.22265625 8.30078125 C6 11 6 11 5 14 C4.34 13.67 3.68 13.34 3 13 C2.40234375 11.07421875 2.40234375 11.07421875 1.9375 8.6875 C1.78152344 7.90761719 1.62554687 7.12773438 1.46484375 6.32421875 C1.31144531 5.55722656 1.15804687 4.79023437 1 4 C0.67470147 2.66468365 0.34406907 1.33060338 0 0 Z " fill="#77D5E9" transform="translate(179,120)"/>
<path d="M0 0 C0.66 0.99 1.32 1.98 2 3 C1.01 4.485 1.01 4.485 0 6 C-0.5827119 7.54766142 -1.12264187 9.11192222 -1.625 10.6875 C-2.01558594 11.89986328 -2.01558594 11.89986328 -2.4140625 13.13671875 C-2.60742188 13.75160156 -2.80078125 14.36648437 -3 15 C-3.66 15 -4.32 15 -5 15 C-1.92482916 4.44191344 -1.92482916 4.44191344 0 0 Z " fill="#6ECFE8" transform="translate(60,113)"/>
<path d="M0 0 C0.99 0.33 1.98 0.66 3 1 C1.68 4.3 0.36 7.6 -1 11 C-1.33 9.68 -1.66 8.36 -2 7 C-2.66 6.67 -3.32 6.34 -4 6 C-3.01 5.34 -2.02 4.68 -1 4 C-0.27617533 1.94074861 -0.27617533 1.94074861 0 0 Z " fill="#6DCEEA" transform="translate(67,120)"/>
<path d="M0 0 C1 3 1 3 -0.75 6.5625 C-2.34738472 9.33408171 -3.19678044 10.13118696 -6 12 C-4.68139111 7.38486888 -2.78644563 3.90102388 0 0 Z " fill="#6DCDE9" transform="translate(80,75)"/>
<path d="M0 0 C0.66 0 1.32 0 2 0 C4.93161919 5.62870885 5.2019586 8.77166905 4 15 C3.67 15 3.34 15 3 15 C2.86722656 14.25234375 2.73445312 13.5046875 2.59765625 12.734375 C2.42105469 11.74953125 2.24445313 10.7646875 2.0625 9.75 C1.88847656 8.77546875 1.71445313 7.8009375 1.53515625 6.796875 C1.09620271 4.50278205 0.59651408 2.25708029 0 0 Z " fill="#6DCEE5" transform="translate(178,17)"/>
<path d="M0 0 C0.0825 0.61875 0.165 1.2375 0.25 1.875 C0.81258459 4.18437567 0.81258459 4.18437567 3.0625 5.25 C3.701875 5.4975 4.34125 5.745 5 6 C4.01 6.495 4.01 6.495 3 7 C0.8359375 6.00390625 0.8359375 6.00390625 -1.625 4.5625 C-2.44226563 4.08941406 -3.25953125 3.61632812 -4.1015625 3.12890625 C-4.72804687 2.75636719 -5.35453125 2.38382812 -6 2 C-5.38125 1.855625 -4.7625 1.71125 -4.125 1.5625 C-1.96741678 1.06847775 -1.96741678 1.06847775 0 0 Z " fill="#6BD3EE" transform="translate(209,81)"/>
<path d="M0 0 C0.99 0 1.98 0 3 0 C3 0.66 3 1.32 3 2 C4.32 1.67 5.64 1.34 7 1 C5.68 2.32 4.36 3.64 3 5 C0.525 4.01 0.525 4.01 -2 3 C-1.34 2.67 -0.68 2.34 0 2 C0 1.34 0 0.68 0 0 Z " fill="#68D3F2" transform="translate(127,120)"/>
<path d="M0 0 C0.33 0.66 0.66 1.32 1 2 C-0.1875 5.5625 -0.1875 5.5625 -2 9 C-4.1875 9.9375 -4.1875 9.9375 -6 10 C-5.67 9.34 -5.34 8.68 -5 8 C-4.566875 7.071875 -4.566875 7.071875 -4.125 6.125 C-2.94273716 3.89183685 -1.55889717 1.98405095 0 0 Z " fill="#59DCFB" transform="translate(165,88)"/>
<path d="M0 0 C1.46726798 3.81489674 0.43336419 6.29011622 -1 10 C-3 8 -3 8 -3.125 5.375 C-3.08375 4.59125 -3.0425 3.8075 -3 3 C-2.01 3 -1.02 3 0 3 C0 2.01 0 1.02 0 0 Z " fill="#6BD1ED" transform="translate(191,186)"/>
<path d="M0 0 C1.11375 0.598125 2.2275 1.19625 3.375 1.8125 C4.00148437 2.14894531 4.62796875 2.48539062 5.2734375 2.83203125 C7 4 7 4 9 7 C4.71193127 6.52354792 2.73352513 5.34097516 0 2 C0 1.34 0 0.68 0 0 Z " fill="#6DCEE5" transform="translate(176,1)"/>
<path d="M0 0 C0 0.66 0 1.32 0 2 C-2.31 2.66 -4.62 3.32 -7 4 C-7.99 3.01 -8.98 2.02 -10 1 C-6.59437148 0.22157062 -3.49234244 -0.09978121 0 0 Z " fill="#6AD2F3" transform="translate(154,204)"/>
<path d="M0 0 C2.875 0.6875 2.875 0.6875 6 2 C7.375 4.625 7.375 4.625 8 7 C4.46399535 5.08864614 2.21027154 3.37357234 0 0 Z " fill="#75D2E9" transform="translate(126,192)"/>
<path d="M0 0 C4.95 1.98 4.95 1.98 10 4 C6 5 6 5 3.875 4.125 C3.25625 3.75375 2.6375 3.3825 2 3 C1.34 2.67 0.68 2.34 0 2 C0 1.34 0 0.68 0 0 Z " fill="#69CCE9" transform="translate(30,127)"/>
<path d="M0 0 C3.25 -0.25 3.25 -0.25 7 0 C8.32 1.32 9.64 2.64 11 4 C7.37 3.01 3.74 2.02 0 1 C0 0.67 0 0.34 0 0 Z " fill="#70CEE9" transform="translate(189,77)"/>
<path d="M0 0 C2.24027294 2.88035092 4.16172132 5.84866512 6 9 C4.125 8.8125 4.125 8.8125 2 8 C0.47835901 5.10888212 0 3.28176588 0 0 Z " fill="#74CFE5" transform="translate(58,191)"/>
<path d="M0 0 C1.98 1.65 3.96 3.3 6 5 C5.01 5.33 4.02 5.66 3 6 C2.67 6.66 2.34 7.32 2 8 C0 2.25 0 2.25 0 0 Z " fill="#69CFEB" transform="translate(127,179)"/>
<path d="M0 0 C2.31 0 4.62 0 7 0 C4.06171403 2.50298434 1.82097239 3.46930939 -2 4 C-1.34 2.68 -0.68 1.36 0 0 Z " fill="#6BD1E9" transform="translate(200,139)"/>
<path d="M0 0 C0.66 0 1.32 0 2 0 C2 1.98 2 3.96 2 6 C1.01 6.33 0.02 6.66 -1 7 C-0.67 4.69 -0.34 2.38 0 0 Z " fill="#6AD3EC" transform="translate(54,129)"/>
</svg>
